<svg xmlns="http://www.w3.org/2000/svg" xmlns:xlink="http://www.w3.org/1999/xlink" width="444" height="384" viewBox="0 0 444 384">
  <defs>
    <linearGradient id="linear-gradient" x1="0.5" x2="0.5" y2="1" gradientUnits="objectBoundingBox">
      <stop offset="0" stop-color="#4dd0e1"/>
      <stop offset="1" stop-color="#039be5"/>
    </linearGradient>
    <filter id="Rectángulo_34285" x="0" y="0" width="444" height="384" filterUnits="userSpaceOnUse">
      <feOffset dy="3" input="SourceAlpha"/>
      <feGaussianBlur stdDeviation="8" result="blur"/>
      <feFlood flood-opacity="0.161"/>
      <feComposite operator="in" in2="blur"/>
      <feComposite in="SourceGraphic"/>
    </filter>
    <radialGradient id="radial-gradient" cx="0.076" cy="0.019" r="1.465" gradientTransform="translate(0.001)" gradientUnits="objectBoundingBox">
      <stop offset="0" stop-color="#f6f6f7"/>
      <stop offset="0.477" stop-color="#f9f9fa"/>
      <stop offset="0.715" stop-color="#fff"/>
    </radialGradient>
  </defs>
  <g id="Grupo_143671" data-name="Grupo 143671" transform="translate(-1002.5 -1878.329)">
    <g id="Grupo_143619" data-name="Grupo 143619" transform="translate(812.418 -2910.199)">
      <rect id="Rectángulo_34284" data-name="Rectángulo 34284" width="396" height="6" transform="translate(214.082 5145.528)" fill="#12263f"/>
      <g transform="matrix(1, 0, 0, 1, 190.08, 4788.53)" filter="url(#Rectángulo_34285)">
        <path id="Rectángulo_34285-2" data-name="Rectángulo 34285" d="M10,0H386a10,10,0,0,1,10,10V336a0,0,0,0,1,0,0H0a0,0,0,0,1,0,0V10A10,10,0,0,1,10,0Z" transform="translate(24 21)" fill="url(#linear-gradient)"/>
      </g>
      <g id="Grupo_20710" data-name="Grupo 20710" transform="translate(254.945 5014.693)">
        <g id="Grupo_20708" data-name="Grupo 20708">
          <path id="Trazado_185266" data-name="Trazado 185266" d="M81.989,17V4.2h4.122a6.064,6.064,0,0,1,3.05.769,5.406,5.406,0,0,1,2.114,2.171,6.554,6.554,0,0,1,.769,3.142v.589a6.592,6.592,0,0,1-.743,3.151,5.429,5.429,0,0,1-2.092,2.18,5.93,5.93,0,0,1-3.01.8ZM85.074,6.585v8.042h1.072a2.4,2.4,0,0,0,2.039-.945,4.63,4.63,0,0,0,.712-2.808V10.32a4.592,4.592,0,0,0-.712-2.795,2.442,2.442,0,0,0-2.074-.94ZM98.09,17.176a4.889,4.889,0,0,1-3.542-1.305,4.507,4.507,0,0,1-1.354-3.4v-.246a5.84,5.84,0,0,1,.541-2.575,3.955,3.955,0,0,1,1.578-1.727,4.763,4.763,0,0,1,2.461-.611,4.117,4.117,0,0,1,3.164,1.244,4.887,4.887,0,0,1,1.16,3.467v1.151H96.209a2.135,2.135,0,0,0,.694,1.257,2.066,2.066,0,0,0,1.389.457,2.662,2.662,0,0,0,2.2-.984l1.354,1.6a3.784,3.784,0,0,1-1.569,1.217A5.3,5.3,0,0,1,98.09,17.176ZM97.756,9.6q-1.3,0-1.547,1.723H99.2v-.229a1.467,1.467,0,0,0-.36-1.1A1.434,1.434,0,0,0,97.756,9.6Zm9.554,5.291a1.317,1.317,0,0,0,.967-.338,1.241,1.241,0,0,0,.334-.945h2.777a3.288,3.288,0,0,1-1.121,2.566,4.168,4.168,0,0,1-2.887,1,4.22,4.22,0,0,1-3.27-1.3,5.125,5.125,0,0,1-1.2-3.6v-.123a5.792,5.792,0,0,1,.532-2.544,3.872,3.872,0,0,1,1.534-1.7,4.573,4.573,0,0,1,2.373-.593A4.116,4.116,0,0,1,110.3,8.343a3.647,3.647,0,0,1,1.09,2.786h-2.777A1.626,1.626,0,0,0,108.25,10a1.244,1.244,0,0,0-.967-.4q-1.151,0-1.345,1.468a10.357,10.357,0,0,0-.062,1.283,4.068,4.068,0,0,0,.343,1.986A1.187,1.187,0,0,0,107.31,14.891ZM115.765,17h-2.971V7.49h2.971ZM112.619,5.029a1.334,1.334,0,0,1,.457-1.043,1.934,1.934,0,0,1,2.373,0,1.334,1.334,0,0,1,.457,1.043,1.334,1.334,0,0,1-.457,1.043,1.934,1.934,0,0,1-2.373,0A1.334,1.334,0,0,1,112.619,5.029Zm4.6,7.146a5.809,5.809,0,0,1,.976-3.56,3.211,3.211,0,0,1,2.725-1.3,2.731,2.731,0,0,1,2.145,1V3.5h2.971V17h-2.663l-.149-1.02a2.8,2.8,0,0,1-2.32,1.2,3.205,3.205,0,0,1-2.689-1.3A5.993,5.993,0,0,1,117.215,12.175Zm2.962.185q0,2.531,1.477,2.531a1.458,1.458,0,0,0,1.406-.826V10.443a1.419,1.419,0,0,0-1.389-.844q-1.371,0-1.485,2.215ZM130.838,17h-2.971V7.49h2.971ZM127.692,5.029a1.334,1.334,0,0,1,.457-1.043,1.934,1.934,0,0,1,2.373,0,1.334,1.334,0,0,1,.457,1.043,1.334,1.334,0,0,1-.457,1.043,1.934,1.934,0,0,1-2.373,0A1.334,1.334,0,0,1,127.692,5.029Zm10.723,5.142-.976-.07a1.752,1.752,0,0,0-1.793.879V17h-2.962V7.49h2.777l.1,1.222a2.294,2.294,0,0,1,2.083-1.4,2.888,2.888,0,0,1,.826.105Z" transform="translate(47 16)" fill="#12263f"/>
        </g>
      </g>
    </g>
    <g id="Grupo_143630" data-name="Grupo 143630" transform="translate(1167.403 1985.329)">
      <g id="Grupo_18423" data-name="Grupo 18423" transform="translate(0 0)">
        <g id="Grupo_18421" data-name="Grupo 18421">
          <g id="Grupo_18420" data-name="Grupo 18420">
            <g id="Grupo_18419" data-name="Grupo 18419">
              <path id="Trazado_40936" data-name="Trazado 40936" d="M309.259,2203.037a57.318,57.318,0,1,1-57.317-57.316A57.317,57.317,0,0,1,309.259,2203.037Z" transform="translate(-194.623 -2145.721)" fill="#fff"/>
            </g>
          </g>
        </g>
        <path id="Trazado_40937" data-name="Trazado 40937" d="M308.648,2202.372a57.316,57.316,0,1,0-57.317,57.319A57.091,57.091,0,0,0,308.648,2202.372Z" transform="translate(-194.013 -2145.056)" fill="url(#radial-gradient)"/>
        <path id="Trazado_40938" data-name="Trazado 40938" d="M289.672,2196.986a43.75,43.75,0,1,0-43.75,43.75A43.587,43.587,0,0,0,289.672,2196.986Z" transform="translate(-188.43 -2139.479)" fill="none" stroke="#00223d" stroke-miterlimit="10" stroke-width="4"/>
        <g id="Grupo_18422" data-name="Grupo 18422" transform="translate(10.154 32.18)">
          <path id="Trazado_40939" data-name="Trazado 40939" d="M299.231,2164.488a57.325,57.325,0,0,1-98.686,57.081,57.143,57.143,0,0,0,98.686-57.081Z" transform="translate(-200.545 -2164.488)" fill="#eceef0"/>
        </g>
      </g>
      <g id="V2DuTg.tif" transform="translate(-5019.254 1.971)">
        <g id="Grupo_143113" data-name="Grupo 143113" transform="translate(5053.827 27.836)">
          <path id="Trazado_184289" data-name="Trazado 184289" d="M5086.583,64.329a2.837,2.837,0,0,0,2.593,1.962c.41.021.822-.008,1.231.016a1.921,1.921,0,0,1,1.836,1.756,14.485,14.485,0,0,1-.088,2.944,3.8,3.8,0,0,1-3.774,3.171c-1.888.025-3.777,0-5.666.008-.966,0-1.291.326-1.292,1.293,0,2.423,0,4.845,0,7.268a2.02,2.02,0,0,1-2.268,2.281q-8.591,0-17.182,0a2.008,2.008,0,0,1-2.232-2.25c0-5.564-.019-11.128.009-16.691a7.95,7.95,0,0,0-1.7-5.019,20.695,20.695,0,1,1,36.886-15.927,14.236,14.236,0,0,1,.238,2.2,4.882,4.882,0,0,0,.521,2.056c1.065,2.285,2.028,4.621,3.166,6.868a2.1,2.1,0,0,1-2.062,3.15c-1.123-.08-2.257-.009-3.386,0-.036,0-.071.03-.165.073,0,.872,0,1.77,0,2.668a1.989,1.989,0,0,1-2.185,2.174C5089.59,64.333,5088.115,64.329,5086.583,64.329Zm3.708,3.936c-.452,0-.838.015-1.223,0a4.951,4.951,0,0,1-4.677-4.563c-.061-.938.3-1.338,1.233-1.341,1.663,0,3.326,0,4.989,0h.663c0-1.021-.067-1.952.026-2.865a2.522,2.522,0,0,1,.6-1.468,2.474,2.474,0,0,1,1.48-.573c1.234-.08,2.476-.026,3.781-.026-.116-.283-.186-.473-.27-.657-.876-1.921-1.719-3.859-2.644-5.756a11.656,11.656,0,0,1-1.132-4.218A18.552,18.552,0,0,0,5079.463,30.5c-1.267-.339-2.587-.478-3.925-.716v6.984a11.708,11.708,0,0,1,7.592,3.678,11.821,11.821,0,0,1,1.007,15,11.756,11.756,0,0,1-8.625,4.9c0,.867-.031,1.688.01,2.5a1.82,1.82,0,0,1-.619,1.525c-.982.933-1.912,1.921-2.888,2.861a1.34,1.34,0,0,0-.457,1.066c.017,4.723.009,9.446.009,14.169,0,.178.019.357.028.539h1.941V81.994c0-1.429.251-1.9,1-1.888.724.013.969.485.969,1.861v1.053h3.939v-.7q0-3.45,0-6.9a2.966,2.966,0,0,1,3.181-3.2c1.848,0,3.7,0,5.543-.006a1.974,1.974,0,0,0,2.113-2.123C5090.3,69.513,5090.291,68.939,5090.291,68.265Zm-20.7,14.779v-.782c0-4.847.009-9.693-.011-14.54a1.861,1.861,0,0,1,.615-1.464c1.022-.98,2.013-1.994,3.008-3a.925.925,0,0,0,.313-.492c.033-.793.015-1.588.015-2.374A11.958,11.958,0,0,1,5062.7,49.3a11.875,11.875,0,0,1,10.8-12.542V29.867a18.172,18.172,0,0,0-7.794,2.17,18.7,18.7,0,0,0-6.093,27.818,10.075,10.075,0,0,1,2.114,6.343c-.036,5.36-.013,10.72-.014,16.08,0,.241,0,.481,0,.742h3.942c0-.609-.006-1.181,0-1.752.01-.723.39-1.165.988-1.162s.972.442.982,1.17c.009.586,0,1.172,0,1.768Zm4.961-24.631a9.856,9.856,0,1,0-9.887-9.855A9.88,9.88,0,0,0,5074.557,58.414Z" transform="translate(-5053.826 -27.836)" fill="#12263f"/>
          <path id="Trazado_184290" data-name="Trazado 184290" d="M5434.624,325.485c-1.4,0-2.792,0-4.188,0-.777,0-1.228-.37-1.228-.984s.449-.984,1.226-.985q4.189,0,8.376,0c.778,0,1.228.369,1.229.983s-.453.983-1.228.986C5437.416,325.488,5436.02,325.485,5434.624,325.485Z" transform="translate(-5382.879 -287.021)" fill="#12263f"/>
          <path id="Trazado_184291" data-name="Trazado 184291" d="M5443.562,359.351a5.218,5.218,0,0,1,.591.259q1.945,1.11,3.88,2.239c.663.388.853.947.526,1.474-.312.506-.863.6-1.5.234q-2-1.141-3.987-2.3a.963.963,0,0,1-.548-1.171A1.012,1.012,0,0,1,5443.562,359.351Z" transform="translate(-5394.508 -318.436)" fill="#12263f"/>
          <path id="Trazado_184292" data-name="Trazado 184292" d="M5448.739,269.018a2.119,2.119,0,0,1-.521.641c-1.384.841-2.79,1.647-4.2,2.441a.967.967,0,0,1-1.381-.362.979.979,0,0,1,.447-1.359c1.361-.8,2.726-1.6,4.1-2.368A1.015,1.015,0,0,1,5448.739,269.018Z" transform="translate(-5394.54 -238.229)" fill="#12263f"/>
          <path id="Trazado_184293" data-name="Trazado 184293" d="M5178.48,170.091l4.245-4.945c.321-.374.632-.756.963-1.119a.985.985,0,1,1,1.483,1.286q-2.889,3.4-5.8,6.777a.975.975,0,0,1-1.6.041q-1.906-1.879-3.786-3.786a.984.984,0,1,1,1.389-1.386C5176.411,167.982,5177.426,169.025,5178.48,170.091Z" transform="translate(-5158.842 -146.861)" fill="#12263f"/>
        </g>
      </g>
    </g>
  </g>
</svg>
