<svg xmlns="http://www.w3.org/2000/svg" xmlns:xlink="http://www.w3.org/1999/xlink" width="444" height="384" viewBox="0 0 444 384">
  <defs>
    <linearGradient id="linear-gradient" x1="0.5" x2="0.5" y2="1" gradientUnits="objectBoundingBox">
      <stop offset="0" stop-color="#4dd0e1"/>
      <stop offset="1" stop-color="#039be5"/>
    </linearGradient>
    <filter id="Rectángulo_34285" x="0" y="0" width="444" height="384" filterUnits="userSpaceOnUse">
      <feOffset dy="3" input="SourceAlpha"/>
      <feGaussianBlur stdDeviation="8" result="blur"/>
      <feFlood flood-opacity="0.161"/>
      <feComposite operator="in" in2="blur"/>
      <feComposite in="SourceGraphic"/>
    </filter>
    <radialGradient id="radial-gradient" cx="0.076" cy="0.019" r="1.465" gradientTransform="translate(0.001)" gradientUnits="objectBoundingBox">
      <stop offset="0" stop-color="#f6f6f7"/>
      <stop offset="0.477" stop-color="#f9f9fa"/>
      <stop offset="0.715" stop-color="#fff"/>
    </radialGradient>
  </defs>
  <g id="Grupo_143672" data-name="Grupo 143672" transform="translate(-377.5 -2243)">
    <g id="Grupo_143614" data-name="Grupo 143614" transform="translate(187.418 -2545.528)">
      <rect id="Rectángulo_34284" data-name="Rectángulo 34284" width="396" height="6" transform="translate(214.082 5145.528)" fill="#12263f"/>
      <g transform="matrix(1, 0, 0, 1, 190.08, 4788.53)" filter="url(#Rectángulo_34285)">
        <path id="Rectángulo_34285-2" data-name="Rectángulo 34285" d="M10,0H386a10,10,0,0,1,10,10V336a0,0,0,0,1,0,0H0a0,0,0,0,1,0,0V10A10,10,0,0,1,10,0Z" transform="translate(24 21)" fill="url(#linear-gradient)"/>
      </g>
      <g id="Grupo_20710" data-name="Grupo 20710" transform="translate(254.945 5014.693)">
        <g id="Grupo_20708" data-name="Grupo 20708">
          <path id="Trazado_185267" data-name="Trazado 185267" d="M126.739,17V4.2h4.122a6.064,6.064,0,0,1,3.05.769,5.406,5.406,0,0,1,2.114,2.171,6.554,6.554,0,0,1,.769,3.142v.589a6.592,6.592,0,0,1-.743,3.151,5.429,5.429,0,0,1-2.092,2.18,5.93,5.93,0,0,1-3.01.8Zm3.085-10.415v8.042H130.9a2.4,2.4,0,0,0,2.039-.945,4.63,4.63,0,0,0,.712-2.808V10.32a4.592,4.592,0,0,0-.712-2.795,2.442,2.442,0,0,0-2.074-.94ZM141.364,17h-2.971V7.49h2.971ZM138.217,5.029a1.334,1.334,0,0,1,.457-1.043,1.934,1.934,0,0,1,2.373,0,1.334,1.334,0,0,1,.457,1.043,1.334,1.334,0,0,1-.457,1.043,1.934,1.934,0,0,1-2.373,0A1.334,1.334,0,0,1,138.217,5.029Zm9.949,9.3a.684.684,0,0,0-.4-.606,6.016,6.016,0,0,0-1.5-.475,6.853,6.853,0,0,1-1.828-.646,3.062,3.062,0,0,1-1.1-.971,2.319,2.319,0,0,1-.378-1.31,2.628,2.628,0,0,1,1.081-2.158,4.453,4.453,0,0,1,2.83-.848,4.934,4.934,0,0,1,3.023.853,2.666,2.666,0,0,1,1.143,2.241H148.07q0-1.143-1.2-1.143a1.194,1.194,0,0,0-.782.259.8.8,0,0,0-.316.646.737.737,0,0,0,.387.642,3.654,3.654,0,0,0,1.235.4,10.671,10.671,0,0,1,1.49.378,2.706,2.706,0,0,1,2.145,2.646,2.491,2.491,0,0,1-1.156,2.118,5.068,5.068,0,0,1-2.993.817,5.172,5.172,0,0,1-2.18-.439,3.645,3.645,0,0,1-1.494-1.2,2.707,2.707,0,0,1-.536-1.591h2.769a1.145,1.145,0,0,0,.439.962,1.808,1.808,0,0,0,1.081.3,1.422,1.422,0,0,0,.91-.246A.787.787,0,0,0,148.166,14.328Zm8.842,2.848a4.889,4.889,0,0,1-3.542-1.305,4.507,4.507,0,0,1-1.354-3.4v-.246a5.84,5.84,0,0,1,.541-2.575,3.955,3.955,0,0,1,1.578-1.727,4.763,4.763,0,0,1,2.461-.611,4.117,4.117,0,0,1,3.164,1.244,4.887,4.887,0,0,1,1.16,3.467v1.151h-5.889a2.135,2.135,0,0,0,.694,1.257,2.066,2.066,0,0,0,1.389.457,2.662,2.662,0,0,0,2.2-.984l1.354,1.6a3.784,3.784,0,0,1-1.569,1.217A5.3,5.3,0,0,1,157.008,17.176ZM156.674,9.6q-1.3,0-1.547,1.723h2.988v-.229a1.467,1.467,0,0,0-.36-1.1A1.434,1.434,0,0,0,156.674,9.6Zm8.253-2.109.1,1.116a3.225,3.225,0,0,1,2.716-1.292,2.713,2.713,0,0,1,2.219.888,4.226,4.226,0,0,1,.76,2.672V17h-2.971V11a1.6,1.6,0,0,0-.29-1.059A1.342,1.342,0,0,0,166.4,9.6a1.413,1.413,0,0,0-1.292.686V17H162.15V7.49Zm4.913-3.92a2.562,2.562,0,0,1-.584,1.7,1.813,1.813,0,0,1-1.446.7,2.852,2.852,0,0,1-1.292-.369,2.7,2.7,0,0,0-1.151-.369.66.66,0,0,0-.479.193.8.8,0,0,0-.2.6l-1.644-.088a2.576,2.576,0,0,1,.584-1.687,1.793,1.793,0,0,1,1.437-.712,2.967,2.967,0,0,1,1.151.325,7.07,7.07,0,0,0,.9.369,1.74,1.74,0,0,0,.4.044.671.671,0,0,0,.483-.2.807.807,0,0,0,.2-.6ZM177.715,17a3.344,3.344,0,0,1-.281-.853,2.754,2.754,0,0,1-2.285,1.028,3.374,3.374,0,0,1-2.285-.813,2.588,2.588,0,0,1-.94-2.043,2.66,2.66,0,0,1,1.143-2.338,5.821,5.821,0,0,1,3.322-.791h.914v-.5q0-1.316-1.134-1.316a.927.927,0,0,0-1.055,1.042h-2.962a2.655,2.655,0,0,1,1.173-2.239,4.931,4.931,0,0,1,2.993-.86,4.323,4.323,0,0,1,2.874.888,3.086,3.086,0,0,1,1.081,2.435v4.21a4.311,4.311,0,0,0,.4,2V17Zm-1.854-1.934a1.652,1.652,0,0,0,.918-.237,1.487,1.487,0,0,0,.523-.536V12.772h-.861q-1.547,0-1.547,1.389a.848.848,0,0,0,.272.655A.986.986,0,0,0,175.861,15.066Zm11.8-4.9-.976-.07a1.752,1.752,0,0,0-1.793.879V17h-2.962V7.49h2.777l.1,1.222a2.294,2.294,0,0,1,2.083-1.4,2.888,2.888,0,0,1,.826.105Z" transform="translate(0 17)" fill="#12263f"/>
        </g>
      </g>
    </g>
    <g id="Grupo_143632" data-name="Grupo 143632" transform="translate(542.403 2336)">
      <g id="Grupo_18423" data-name="Grupo 18423" transform="translate(0 0)">
        <g id="Grupo_18421" data-name="Grupo 18421">
          <g id="Grupo_18420" data-name="Grupo 18420">
            <g id="Grupo_18419" data-name="Grupo 18419">
              <path id="Trazado_40936" data-name="Trazado 40936" d="M309.259,2203.037a57.318,57.318,0,1,1-57.317-57.316A57.317,57.317,0,0,1,309.259,2203.037Z" transform="translate(-194.623 -2145.721)" fill="#fff"/>
            </g>
          </g>
        </g>
        <path id="Trazado_40937" data-name="Trazado 40937" d="M308.648,2202.372a57.316,57.316,0,1,0-57.317,57.319A57.091,57.091,0,0,0,308.648,2202.372Z" transform="translate(-194.013 -2145.056)" fill="url(#radial-gradient)"/>
        <path id="Trazado_40938" data-name="Trazado 40938" d="M289.672,2196.986a43.75,43.75,0,1,0-43.75,43.75A43.587,43.587,0,0,0,289.672,2196.986Z" transform="translate(-188.43 -2139.479)" fill="none" stroke="#00223d" stroke-miterlimit="10" stroke-width="4"/>
        <g id="Grupo_18422" data-name="Grupo 18422" transform="translate(10.154 32.18)">
          <path id="Trazado_40939" data-name="Trazado 40939" d="M299.231,2164.488a57.325,57.325,0,0,1-98.686,57.081,57.143,57.143,0,0,0,98.686-57.081Z" transform="translate(-200.545 -2164.488)" fill="#eceef0"/>
        </g>
      </g>
      <g id="JQusRI.tif" transform="translate(-4192.147 938.219)">
        <g id="Grupo_143116" data-name="Grupo 143116" transform="translate(4227.505 -904.422)">
          <path id="Trazado_184317" data-name="Trazado 184317" d="M4229.834-856.878c-.144-.052-.287-.1-.432-.155a2.745,2.745,0,0,1-1.883-2.559c-.018-1.594-.021-3.188,0-4.781a2.764,2.764,0,0,1,2.74-2.716c.46-.01.921,0,1.406,0v-27.087c-.121-.009-.253-.025-.385-.026-.913,0-1.826.005-2.738,0a.925.925,0,0,1-1.026-1q-.01-4.108,0-8.216a.912.912,0,0,1,.982-.993q4.13-.011,8.261,0a.9.9,0,0,1,.959.968q.013,4.131,0,8.263a.917.917,0,0,1-1,.975c-1.035.01-2.07,0-3.15,0-.008.17-.021.318-.021.466,0,2.522-.014,5.044,0,7.566a23.068,23.068,0,0,0,5.677,15.13c.049.058.09.124.178.244.085-.187.142-.3.189-.42q1.756-4.413,3.518-8.824a2.471,2.471,0,0,1,.509-.811q11.163-11.188,22.343-22.358a3.7,3.7,0,0,1,4.93-.484,5.756,5.756,0,0,1,.625.553c.551.542,1.08,1.109,1.646,1.636a5.566,5.566,0,0,1,1.878,2.845v1.114a4.83,4.83,0,0,1-1.291,2.309q-11.1,11.08-22.194,22.176a2.721,2.721,0,0,1-.875.578c-2.917,1.187-5.844,2.354-8.767,3.527-.133.053-.264.111-.409.172a1.191,1.191,0,0,0,.094.131c.092.083.184.166.279.245a23.015,23.015,0,0,0,15.053,5.495c2.475.012,4.95,0,7.425,0,.148,0,.3-.013.474-.022,0-1.01,0-1.982,0-2.955,0-.894.306-1.2,1.2-1.2,2.583,0,5.167.013,7.75-.01a1.259,1.259,0,0,1,1.262.66v9.564h-9.562a1.21,1.21,0,0,1-.658-1.262c.037-.57.008-1.144.008-1.716v-1.163h-27.109c0,.5.015.965,0,1.428a2.6,2.6,0,0,1-1.117,2.138,7.883,7.883,0,0,1-1.2.575Zm17.538-21.284,15.3-15.306-1.843-1.854-15.307,15.308Zm16.8-13.858-15.333,15.335,1.8,1.794,15.334-15.339Zm-30.612,24.937c1.207-.018,2.4-.138,3.344.8.964.949.824,2.162.824,3.348h9.5a25.6,25.6,0,0,1-13.666-13.827Zm-4.166-29.009h6.441v-6.443h-6.441Zm43.762,37.338V-865.2h-6.44v6.442Zm-37.285-3.218c0-.757.009-1.514,0-2.271a.917.917,0,0,0-.987-.986q-2.247-.015-4.494,0a.926.926,0,0,0-1.01,1.011q-.013,2.224,0,4.449a.932.932,0,0,0,1.034,1.035q2.2.011,4.4,0a.945.945,0,0,0,1.058-1.059C4235.874-860.522,4235.868-861.248,4235.868-861.974ZM4263.525-898l-1.306,1.258,5.245,5.255c.312-.343.621-.707.957-1.045.184-.185.257-.323.108-.588a.819.819,0,0,1,.155-.987.889.889,0,0,1,.933-.261,1.7,1.7,0,0,1,.338.148l1.246-1.206-5.213-5.211c-.316.324-.679.684-1.024,1.058a.359.359,0,0,0-.089.306.915.915,0,0,1-.156,1.223A.916.916,0,0,1,4263.525-898Zm-19.11,19.7c-.309.78-.614,1.585-.948,2.378a.464.464,0,0,0,.127.6q1.25,1.21,2.468,2.454a.451.451,0,0,0,.606.1c.417-.2.85-.369,1.275-.553.346-.15.691-.3,1.012-.445Zm28.253-18.551a1.668,1.668,0,0,0,.143-2.31c-.954-1.053-1.963-2.062-3.013-3.019a1.633,1.633,0,0,0-2.308.143Zm-31.255,26.1,2.915-1.089-1.764-1.787Z" transform="translate(-4227.505 904.422)" fill="#12263f"/>
          <path id="Trazado_184318" data-name="Trazado 184318" d="M4641.252-823.983a.907.907,0,0,1-.907.917.906.906,0,0,1-.928-.941.906.906,0,0,1,.929-.893A.907.907,0,0,1,4641.252-823.983Z" transform="translate(-4601.104 832.296)" fill="#12263f"/>
        </g>
      </g>
    </g>
  </g>
</svg>
