<svg xmlns="http://www.w3.org/2000/svg" width="93" height="94" viewBox="0 0 93 94">
  <g id="Grupo_143654" data-name="Grupo 143654" transform="translate(0.275 -0.334)">
    <ellipse id="Elipse_4870" data-name="Elipse 4870" cx="46.5" cy="47" rx="46.5" ry="47" transform="translate(-0.275 0.334)" fill="#12263f"/>
    <g id="fid3r8" transform="translate(-3234.819 -1897.997)">
      <g id="Grupo_89211" data-name="Grupo 89211" transform="translate(3250.552 1912.189)">
        <path id="Trazado_122301" data-name="Trazado 122301" d="M3295.5,1941.8a8.792,8.792,0,0,0,8.3-7.346,38.244,38.244,0,0,0,.138-4.562.629.629,0,0,0-.324-.437,2.842,2.842,0,0,1,.055-5.169.647.647,0,0,0,.28-.462,3.961,3.961,0,0,1,7.911.391c.008,2.9.015,5.809,0,8.713a18.774,18.774,0,0,1-15.447,18.506c-1.408.26-2.86.281-4.345.417l-.369,1.826c.273.026.519.029.756.075a2.011,2.011,0,0,1,1.611,2.113q.006,5.778,0,11.556c0,.721.011,1.442,0,2.163a3.923,3.923,0,0,1-3.9,3.9q-8.928.03-17.856,0a3.91,3.91,0,0,1-3.935-3.929c-.019-4.594-.011-9.187,0-13.78a1.967,1.967,0,0,1,2-2.059l.359-.023c-.068-.349-.129-.663-.191-.977s-.12-.6-.184-.922c-1-.055-1.979-.082-2.956-.167a18.78,18.78,0,0,1-16.445-14.985,25.727,25.727,0,0,1-.368-4.05c-.054-2.883-.036-5.767-.006-8.651a3.913,3.913,0,0,1,3.289-3.781,3.762,3.762,0,0,1,4.243,2.328,5.729,5.729,0,0,0,1.613,2.592,2.665,2.665,0,0,1-.725,4.245.844.844,0,0,0-.529.9,37.022,37.022,0,0,0,.282,4.73,8.749,8.749,0,0,0,7.987,6.864.45.45,0,0,0,.132-.02,10.409,10.409,0,0,1-.457-1.65,3.418,3.418,0,0,1,1.2-2.913c1.02-.99,1.014-1.624.039-2.607a3.408,3.408,0,0,1-.02-5.3,2.424,2.424,0,0,0,.74-1.824,20.931,20.931,0,0,1,.457-5.887,12.825,12.825,0,0,1,24.99,1.113,29.38,29.38,0,0,1,.235,4.614,2.781,2.781,0,0,0,.85,2.093,3.365,3.365,0,0,1-.009,5.082l-.175.175a1.478,1.478,0,0,0-.022,2.441,6.289,6.289,0,0,1,.982,1.255C3296.233,1939.4,3296.161,1940.247,3295.5,1941.8Zm-17.279-23.653a4.021,4.021,0,0,0,4.389,3.931c.844,0,1.688-.008,2.532,0a4.938,4.938,0,0,1,4.966,4.932c.018,1.359.012,2.718,0,4.077a8.687,8.687,0,0,1-.837,3.64,9.109,9.109,0,0,1-3.594,3.947,4.624,4.624,0,0,0,3.475,3.034c.822.146,1.682.067,2.518.154a1.889,1.889,0,0,0,1.711-.706c.9-.974.929-1.606.01-2.534-1.748-1.764-1.752-3.642-.012-5.394.928-.935.938-1.591,0-2.522a4.257,4.257,0,0,1-1.3-3.158,32.931,32.931,0,0,0-.11-3.884,10.816,10.816,0,0,0-9.813-9.464,10.933,10.933,0,0,0-11.236,7.322,14.74,14.74,0,0,0-.57,5.492,4.785,4.785,0,0,1-1.532,3.936,1.334,1.334,0,0,0-.014,2.029c.208.228.44.434.645.665a3.35,3.35,0,0,1,0,4.551c-.191.215-.4.413-.6.619a1.249,1.249,0,0,0-.356,1.564c.384.65.785,1.395,1.672,1.46a20.6,20.6,0,0,0,2.284,0,4.762,4.762,0,0,0,4.288-3.176l-.247-.164a8.454,8.454,0,0,1-4.069-6.453c-.18-1.961-.091-3.948-.1-5.924a4.955,4.955,0,0,1,3.485-5.05c.337-.127.669-.268,1-.4-.145-.459-.3-.844-.384-1.243s-.116-.833-.175-1.283Zm13.823,49.39v-11.811h-21.667v11.811Zm-21.644-17.789,1-2.422,1.836.932c-1.212,1.769-1.039,3.583-.4,5.46h4.692c3.851,0,7.7,0,11.554-.01.208,0,.564-.1.6-.227a5.86,5.86,0,0,0,0-4.335c-.144-.293-.278-.591-.434-.924l1.795-.894.99,2.426a16.565,16.565,0,0,0,5.6-.656l-1.178-5.268c-1.529,0-2.948.026-4.366-.008s-2.814-.125-4.28-.195a6.7,6.7,0,0,1-1.9,4.156,6.477,6.477,0,0,1-4.341,1.964,6.331,6.331,0,0,1-3.926-1.054,6.7,6.7,0,0,1-3.041-5.211c-2.88.637-5.722.238-8.625.337l-1.174,5.284A16.532,16.532,0,0,0,3270.4,1949.747Zm3.9-21.213-.051,0c.052,1.191.01,2.4.175,3.57a6.874,6.874,0,0,0,13.576,0,41.687,41.687,0,0,0,.131-5.054,2.938,2.938,0,0,0-3.021-3c-1.009-.011-2.018.008-3.027-.009a4.364,4.364,0,0,1-2.952-.911,2.039,2.039,0,0,0-2.635-.21c-.11.055-.231.086-.344.137a2.921,2.921,0,0,0-1.847,2.752C3274.277,1926.722,3274.3,1927.629,3274.3,1928.535Zm-17.8-2.5c0-.634,0-1.187,0-1.74a1.989,1.989,0,1,0-3.953-.016c0,2.9-.021,5.807,0,8.711a16.521,16.521,0,0,0,4.787,11.7,16.149,16.149,0,0,0,5.576,3.78l1.128-5.083c-.079-.082-.091-.1-.108-.11-.094-.041-.19-.079-.285-.117a10.447,10.447,0,0,1-6.894-8.131c-.312-1.679-.122-3.446-.276-5.163-.1-1.088.162-1.817,1.276-2.1.1-.025.228-.07.266-.144.158-.306.449-.669.382-.932s-.474-.518-.784-.623A3.856,3.856,0,0,0,3256.5,1926.036Zm43.014,22.414c.167-.056.249-.074.321-.109,6.2-2.986,9.625-7.9,10.013-14.773.178-3.141.042-6.3.033-9.451a1.976,1.976,0,1,0-3.948.034c-.007.611,0,1.223,0,1.884-.413,0-.76-.007-1.105,0-.448.01-.815.252-.821.673a1.387,1.387,0,0,0,.449.907,3.318,3.318,0,0,0,1.034.537.674.674,0,0,1,.452.757c-.024,1.4.018,2.8-.017,4.2a10.723,10.723,0,0,1-3.512,7.831,11.169,11.169,0,0,1-4.039,2.377C3298.757,1945.036,3299.13,1946.716,3299.516,1948.45Zm-29.139,21.113a1.923,1.923,0,0,0,2.1,1.95q6.3.008,12.6,0c1.668,0,3.336.012,5-.005a1.9,1.9,0,0,0,1.961-1.947Zm13.248-29.96a20.691,20.691,0,0,1-2.4.25,21.853,21.853,0,0,1-2.479-.257,27.205,27.205,0,0,1-1.789,2.315,1.224,1.224,0,0,0-.393,1.24c.05.213.08.431.118.644h9.088a6.025,6.025,0,0,0,.123-.822,1.287,1.287,0,0,0-.113-.741C3285.1,1941.348,3284.368,1940.5,3283.625,1939.6Zm1.278,6.26h-7.372A4.523,4.523,0,0,0,3284.9,1945.864Z" transform="translate(-3250.552 -1912.189)" fill="#fff"/>
        <path id="Trazado_122302" data-name="Trazado 122302" d="M3625.924,2309.412c-1.895,0-3.789,0-5.684,0a1.99,1.99,0,0,1-2.194-2.177q-.007-4.757,0-9.514a1.989,1.989,0,0,1,2.161-2.148q5.744-.006,11.49,0a1.982,1.982,0,0,1,2.164,2.145q.009,4.788,0,9.576a1.977,1.977,0,0,1-2.13,2.117C3629.795,2309.417,3627.859,2309.412,3625.924,2309.412Zm-5.867-7.883v1.912h11.783v-1.912Zm11.814,3.979h-11.807v1.881h11.807Zm-.013-7.918h-3.877v1.9h3.877Zm-9.9,1.9v-1.9h-1.906v1.9Zm2.064-1.923v1.923h1.9v-1.923Z" transform="translate(-3572.55 -2248.108)" fill="#fff"/>
        <path id="Trazado_122303" data-name="Trazado 122303" d="M3254.572,2313.528a2.069,2.069,0,0,1,2.31-1.979q3.673,0,7.346,0a2.009,2.009,0,0,1,2.245,2.249c0,1.523.01,3.046,0,4.569a4.946,4.946,0,0,1-5.038,5.045c-.6.005-1.194.01-1.791,0a4.937,4.937,0,0,1-4.558-2.847,1.231,1.231,0,0,0-.655-.509c-.463-.158-.965-.2-1.439-.331a3.151,3.151,0,0,1,.751-6.2C3254.007,2313.521,3254.273,2313.528,3254.572,2313.528Zm2.042.013c0,1.812-.084,3.583.026,5.342a2.856,2.856,0,0,0,2.875,2.549c.659.016,1.318.012,1.977,0a2.959,2.959,0,0,0,3-3.026c.013-1.483,0-2.966,0-4.449a3.42,3.42,0,0,0-.05-.417Zm-2.025,2.011c-1.243-.134-1.9.233-1.949,1.065s.642,1.335,1.949,1.355Z" transform="translate(-3250.638 -2262.11)" fill="#fff"/>
        <path id="Trazado_122304" data-name="Trazado 122304" d="M3298.7,2247.867h1.968a4.586,4.586,0,0,0,1.057,2.767,5.315,5.315,0,0,1,.906,3.1h-1.966a4.489,4.489,0,0,0-1.024-2.707A5.355,5.355,0,0,1,3298.7,2247.867Z" transform="translate(-3292.74 -2206.313)" fill="#fff"/>
        <path id="Trazado_122305" data-name="Trazado 122305" d="M3330.647,2247.869h1.968a4.584,4.584,0,0,0,1.057,2.767,5.306,5.306,0,0,1,.905,3.1h-1.965a4.487,4.487,0,0,0-1.025-2.708A5.353,5.353,0,0,1,3330.647,2247.869Z" transform="translate(-3320.732 -2206.314)" fill="#fff"/>
        <path id="Trazado_122306" data-name="Trazado 122306" d="M3480.251,2282.592a2.964,2.964,0,1,1-2.925-2.972A2.978,2.978,0,0,1,3480.251,2282.592Zm-1.98,0a.983.983,0,1,0-.991.977A.994.994,0,0,0,3478.271,2282.592Z" transform="translate(-3446.623 -2234.135)" fill="#fff"/>
        <path id="Trazado_122307" data-name="Trazado 122307" d="M3468.146,2056.321a4.987,4.987,0,1,1-9.811,0Zm-7.628,1.951a2.878,2.878,0,0,0,3,1.949,2.676,2.676,0,0,0,2.393-1.949Z" transform="translate(-3432.576 -2038.479)" fill="#fff"/>
        <path id="Trazado_122308" data-name="Trazado 122308" d="M3460.343,2025.033a.983.983,0,1,1-.99-.977A1,1,0,0,1,3460.343,2025.033Z" transform="translate(-3432.649 -2010.208)" fill="#fff"/>
        <path id="Trazado_122309" data-name="Trazado 122309" d="M3524.231,2025.017a.984.984,0,1,1-1-.963A1,1,0,0,1,3524.231,2025.017Z" transform="translate(-3488.628 -2010.206)" fill="#fff"/>
      </g>
    </g>
  </g>
</svg>
