<svg id="Grupo_143629" data-name="Grupo 143629" xmlns="http://www.w3.org/2000/svg" xmlns:xlink="http://www.w3.org/1999/xlink" width="114.636" height="114.636" viewBox="0 0 114.636 114.636">
  <defs>
    <radialGradient id="radial-gradient" cx="0.076" cy="0.019" r="1.465" gradientTransform="translate(0.001)" gradientUnits="objectBoundingBox">
      <stop offset="0" stop-color="#f6f6f7"/>
      <stop offset="0.477" stop-color="#f9f9fa"/>
      <stop offset="0.715" stop-color="#fff"/>
    </radialGradient>
  </defs>
  <g id="Grupo_18423" data-name="Grupo 18423" transform="translate(0 0)">
    <g id="Grupo_18421" data-name="Grupo 18421">
      <g id="Grupo_18420" data-name="Grupo 18420">
        <g id="Grupo_18419" data-name="Grupo 18419">
          <path id="Trazado_40936" data-name="Trazado 40936" d="M309.259,2203.037a57.318,57.318,0,1,1-57.317-57.316A57.317,57.317,0,0,1,309.259,2203.037Z" transform="translate(-194.623 -2145.721)" fill="#fff"/>
        </g>
      </g>
    </g>
    <path id="Trazado_40937" data-name="Trazado 40937" d="M308.648,2202.372a57.316,57.316,0,1,0-57.317,57.319A57.091,57.091,0,0,0,308.648,2202.372Z" transform="translate(-194.013 -2145.056)" fill="url(#radial-gradient)"/>
    <path id="Trazado_40938" data-name="Trazado 40938" d="M289.672,2196.986a43.75,43.75,0,1,0-43.75,43.75A43.587,43.587,0,0,0,289.672,2196.986Z" transform="translate(-188.43 -2139.479)" fill="none" stroke="#00223d" stroke-miterlimit="10" stroke-width="4"/>
    <g id="Grupo_18422" data-name="Grupo 18422" transform="translate(10.154 32.18)">
      <path id="Trazado_40939" data-name="Trazado 40939" d="M299.231,2164.488a57.325,57.325,0,0,1-98.686,57.081,57.143,57.143,0,0,0,98.686-57.081Z" transform="translate(-200.545 -2164.488)" fill="#eceef0"/>
    </g>
  </g>
  <g id="lwo0Ow.tif" transform="translate(-271.367 559.239)">
    <g id="Grupo_143625" data-name="Grupo 143625" transform="translate(298.908 -533.481)">
      <path id="Trazado_185205" data-name="Trazado 185205" d="M308.063-438.029l1.418-2.463a15.978,15.978,0,0,1-2.612-21.748,15.913,15.913,0,0,1,20.147-4.575,15.965,15.965,0,0,1,7.672,19.145c-2.441,7.486-11.5,13.324-20.619,9.843l-1.4,2.435c.158.1.277.181.4.254.887.524.976.873.449,1.787q-2.2,3.82-4.408,7.639-1.143,1.981-2.285,3.963c-.454.785-.836.886-1.623.433q-2.769-1.6-5.536-3.2c-.858-.5-.954-.84-.464-1.69q3.344-5.8,6.691-11.6c.512-.888.841-.974,1.732-.463C307.753-438.2,307.882-438.129,308.063-438.029Zm25.684-14.734a14.115,14.115,0,0,0-14.1-14.1,14.089,14.089,0,0,0-14.13,14.066,14.118,14.118,0,0,0,14.2,14.176A14.144,14.144,0,0,0,333.748-452.763Zm-26.566,16.272L301-425.789l4.586,2.652,6.173-10.7Zm3.94.236,1.335-2.315-1.541-.865-1.322,2.295Z" transform="translate(-298.908 475.801)" fill="#12263f"/>
      <path id="Trazado_185206" data-name="Trazado 185206" d="M507.311-150.058q7.777,0,15.553,0c.978,0,1.239.265,1.24,1.242q0,4.965,0,9.929c0,.9-.284,1.19-1.182,1.19H491.76c-.934,0-1.209-.278-1.21-1.218q0-4.965,0-9.929c0-.943.272-1.218,1.208-1.218h15.553ZM492.343-139.5h8.776v-8.749h-1.738c0,1.1,0,2.164,0,3.227,0,.857-.3,1.145-1.169,1.148q-1.131,0-2.261,0c-1.848,0-1.867-.018-1.867-1.885v-2.5h-1.741Zm19.362.029v-8.789h-1.728c0,1.088,0,2.149,0,3.211,0,.893-.289,1.174-1.2,1.176q-1.462,0-2.923,0c-.9,0-1.175-.285-1.177-1.194q0-1.59,0-3.186h-1.722v8.779Zm1.843-8.79v8.776h8.757v-8.762h-1.733c0,1.125,0,2.209,0,3.292,0,.76-.316,1.075-1.07,1.08-1.011.006-2.023,0-3.034,0-.908,0-1.19-.277-1.191-1.176,0-1.062,0-2.124,0-3.212Zm-15.954,0H495.88v2.585h1.715Zm10.58,2.607v-2.592h-1.682v2.592Zm10.6,0v-2.6h-1.683v2.6Z" transform="translate(-469.361 192.452)" fill="#12263f"/>
      <path id="Trazado_185207" data-name="Trazado 185207" d="M661.816-518.917a11.508,11.508,0,0,1,1.637.677,8.427,8.427,0,0,1,1.843,1.363,2.771,2.771,0,0,1,.026,3.893,6.752,6.752,0,0,1-3.808,2.067,12.961,12.961,0,0,1-8.869-.8,5.946,5.946,0,0,1-1.682-1.3,2.765,2.765,0,0,1-.028-3.811,6.419,6.419,0,0,1,2.951-1.848c.188-.066.378-.127.63-.212-.251-.45-.493-.871-.722-1.3a12.822,12.822,0,0,1-1.8-6.893A6.461,6.461,0,0,1,655.923-533a5.977,5.977,0,0,1,7.964,3.806,9.046,9.046,0,0,1-.316,6.409C663.069-521.472,662.411-520.216,661.816-518.917Zm-3.683,2.338c1.606-2.512,3.279-4.867,4.076-7.687a7.648,7.648,0,0,0,.243-3.541,4.643,4.643,0,0,0-4.076-3.893,4.5,4.5,0,0,0-4.437,3.5,7.352,7.352,0,0,0,.072,3.76C654.718-521.512,656.47-519.134,658.133-516.579Zm.238,4.307c.333-.027.922-.047,1.5-.13a7.492,7.492,0,0,0,3.769-1.4c.9-.726.945-1.568,0-2.218a16.192,16.192,0,0,0-2.406-1.158.548.548,0,0,0-.806.288c-.44.762-.933,1.494-1.408,2.236-.516.806-1.206.817-1.729.026s-1.017-1.572-1.544-2.345c-.086-.126-.3-.285-.409-.259a5.486,5.486,0,0,0-3,1.5,1.037,1.037,0,0,0,.005,1.612,4.857,4.857,0,0,0,1.285.921A10.935,10.935,0,0,0,658.371-512.272Z" transform="translate(-611.35 533.481)" fill="#12263f"/>
      <path id="Trazado_185208" data-name="Trazado 185208" d="M716.185-307.8h-1.691v-1.719h1.691Z" transform="translate(-668.547 334.28)" fill="#12263f"/>
      <path id="Trazado_185209" data-name="Trazado 185209" d="M652.284-277.429v1.688h-1.717v-1.688Z" transform="translate(-611.688 305.738)" fill="#12263f"/>
      <path id="Trazado_185210" data-name="Trazado 185210" d="M684.3-275.807h-1.7v-1.71h1.7Z" transform="translate(-640.182 305.816)" fill="#12263f"/>
      <path id="Trazado_185211" data-name="Trazado 185211" d="M714.534-277.636h1.7v1.7h-1.7Z" transform="translate(-668.583 305.922)" fill="#12263f"/>
      <path id="Trazado_185212" data-name="Trazado 185212" d="M374.556-424.4a12.327,12.327,0,0,1,12.394-12.349,12.351,12.351,0,0,1,12.328,12.321,12.393,12.393,0,0,1-12.381,12.4A12.37,12.37,0,0,1,374.556-424.4Zm1.765-.048a10.594,10.594,0,0,0,10.595,10.646,10.614,10.614,0,0,0,10.592-10.548,10.6,10.6,0,0,0-10.553-10.632A10.56,10.56,0,0,0,376.321-424.451Z" transform="translate(-366.192 447.446)" fill="#12263f"/>
      <path id="Trazado_185213" data-name="Trazado 185213" d="M700.865-501.451a2.662,2.662,0,0,1,2.665,2.6,2.669,2.669,0,0,1-2.634,2.695,2.662,2.662,0,0,1-2.663-2.661A2.658,2.658,0,0,1,700.865-501.451Zm.032,1.769a.887.887,0,0,0-.894.861.885.885,0,0,0,.859.9.894.894,0,0,0,.9-.862A.885.885,0,0,0,700.9-499.683Z" transform="translate(-654.085 504.992)" fill="#12263f"/>
      <path id="Trazado_185214" data-name="Trazado 185214" d="M445.149-399.936a3.512,3.512,0,0,1,.485-4.844,3.51,3.51,0,0,1,4.6,0c1.409,1.2,1.6,3.037.486,4.854.154.1.311.186.461.287a4.3,4.3,0,0,1,2.043,3.644c.033,1.728.014,3.457.009,5.186,0,.747-.328,1.067-1.085,1.068q-4.22,0-8.44,0c-.755,0-1.07-.32-1.073-1.076,0-1.471,0-2.942,0-4.414C442.637-397.636,443.142-398.59,445.149-399.936Zm-.74,8.388h7.051c0-1.546.036-3.054-.011-4.559a2.607,2.607,0,0,0-2.521-2.458c-.661-.024-1.325-.024-1.986,0a2.6,2.6,0,0,0-2.523,2.454C444.372-394.606,444.409-393.1,444.409-391.548Zm3.549-8.792a1.779,1.779,0,0,0,1.74-1.775,1.778,1.778,0,0,0-1.761-1.754,1.775,1.775,0,0,0-1.767,1.8A1.781,1.781,0,0,0,447.958-400.34Z" transform="translate(-426.744 419.773)" fill="#12263f"/>
    </g>
  </g>
</svg>
