<svg xmlns="http://www.w3.org/2000/svg" xmlns:xlink="http://www.w3.org/1999/xlink" width="444" height="384" viewBox="0 0 444 384">
  <defs>
    <linearGradient id="linear-gradient" x1="0.5" x2="0.5" y2="1" gradientUnits="objectBoundingBox">
      <stop offset="0" stop-color="#4dd0e1"/>
      <stop offset="1" stop-color="#039be5"/>
    </linearGradient>
    <filter id="Rectángulo_34285" x="0" y="0" width="444" height="384" filterUnits="userSpaceOnUse">
      <feOffset dy="3" input="SourceAlpha"/>
      <feGaussianBlur stdDeviation="8" result="blur"/>
      <feFlood flood-opacity="0.161"/>
      <feComposite operator="in" in2="blur"/>
      <feComposite in="SourceGraphic"/>
    </filter>
    <radialGradient id="radial-gradient" cx="0.076" cy="0.019" r="1.465" gradientTransform="translate(0.001)" gradientUnits="objectBoundingBox">
      <stop offset="0" stop-color="#f6f6f7"/>
      <stop offset="0.477" stop-color="#f9f9fa"/>
      <stop offset="0.715" stop-color="#fff"/>
    </radialGradient>
  </defs>
  <g id="Grupo_143670" data-name="Grupo 143670" transform="translate(-584.5 -1878.329)">
    <g id="Grupo_143618" data-name="Grupo 143618" transform="translate(394.418 -2910.199)">
      <rect id="Rectángulo_34284" data-name="Rectángulo 34284" width="396" height="6" transform="translate(214.082 5145.528)" fill="#12263f"/>
      <g transform="matrix(1, 0, 0, 1, 190.08, 4788.53)" filter="url(#Rectángulo_34285)">
        <path id="Rectángulo_34285-2" data-name="Rectángulo 34285" d="M10,0H386a10,10,0,0,1,10,10V336a0,0,0,0,1,0,0H0a0,0,0,0,1,0,0V10A10,10,0,0,1,10,0Z" transform="translate(24 21)" fill="url(#linear-gradient)"/>
      </g>
      <g id="Grupo_20710" data-name="Grupo 20710" transform="translate(319.764 5014.693)">
        <g id="Grupo_20708" data-name="Grupo 20708" transform="translate(0 -3)">
          <path id="Trazado_185265" data-name="Trazado 185265" d="M54.37,17H51.294V4.2H54.37ZM56,12.175a5.809,5.809,0,0,1,.976-3.56,3.211,3.211,0,0,1,2.725-1.3,2.731,2.731,0,0,1,2.145,1V3.5H64.82V17H62.157l-.149-1.02a2.8,2.8,0,0,1-2.32,1.2A3.205,3.205,0,0,1,57,15.875,5.993,5.993,0,0,1,56,12.175Zm2.962.185q0,2.531,1.477,2.531a1.458,1.458,0,0,0,1.406-.826V10.443A1.419,1.419,0,0,0,60.461,9.6q-1.371,0-1.485,2.215ZM71.1,17.176a4.889,4.889,0,0,1-3.542-1.305,4.507,4.507,0,0,1-1.354-3.4v-.246a5.84,5.84,0,0,1,.541-2.575,3.955,3.955,0,0,1,1.578-1.727,4.763,4.763,0,0,1,2.461-.611,4.117,4.117,0,0,1,3.164,1.244,4.887,4.887,0,0,1,1.16,3.467v1.151H69.223a2.135,2.135,0,0,0,.694,1.257,2.066,2.066,0,0,0,1.389.457,2.662,2.662,0,0,0,2.2-.984l1.354,1.6a3.784,3.784,0,0,1-1.569,1.217A5.3,5.3,0,0,1,71.1,17.176ZM70.77,9.6q-1.3,0-1.547,1.723h2.988v-.229a1.467,1.467,0,0,0-.36-1.1A1.434,1.434,0,0,0,70.77,9.6ZM79.023,7.49l.1,1.116a3.225,3.225,0,0,1,2.716-1.292,2.713,2.713,0,0,1,2.219.888,4.226,4.226,0,0,1,.76,2.672V17H81.844V11a1.6,1.6,0,0,0-.29-1.059A1.342,1.342,0,0,0,80.5,9.6a1.413,1.413,0,0,0-1.292.686V17H76.246V7.49ZM89.9,5.126V7.49h1.564V9.547H89.9V13.9a1.111,1.111,0,0,0,.193.747,1.037,1.037,0,0,0,.765.211A4.345,4.345,0,0,0,91.6,14.8v2.118a5.466,5.466,0,0,1-1.67.255,3.1,3.1,0,0,1-2.259-.721,2.954,2.954,0,0,1-.729-2.188V9.547H85.729V7.49h1.213V5.126ZM95.757,17H92.787V7.49h2.971ZM92.611,5.029a1.334,1.334,0,0,1,.457-1.043,1.934,1.934,0,0,1,2.373,0A1.334,1.334,0,0,1,95.9,5.029a1.334,1.334,0,0,1-.457,1.043,1.934,1.934,0,0,1-2.373,0A1.334,1.334,0,0,1,92.611,5.029ZM98.271,17V9.547h-1.38V7.49h1.38V7.174a3.631,3.631,0,0,1,1.248-2.909,4.987,4.987,0,0,1,3.243-.949,11.509,11.509,0,0,1,3.094.51l-.4,2.338-.492-.132a7.832,7.832,0,0,0-2.021-.255q-1.7,0-1.7,1.547V7.49h1.863V9.547h-1.863V17Zm8.947,0h-2.979V7.49h2.979Zm5.827-2.109a1.317,1.317,0,0,0,.967-.338,1.241,1.241,0,0,0,.334-.945h2.777A3.288,3.288,0,0,1,116,16.174a4.168,4.168,0,0,1-2.887,1,4.22,4.22,0,0,1-3.27-1.3,5.125,5.125,0,0,1-1.2-3.6v-.123a5.792,5.792,0,0,1,.532-2.544,3.872,3.872,0,0,1,1.534-1.7,4.573,4.573,0,0,1,2.373-.593,4.116,4.116,0,0,1,2.944,1.028,3.647,3.647,0,0,1,1.09,2.786h-2.777a1.626,1.626,0,0,0-.36-1.134,1.244,1.244,0,0,0-.967-.4q-1.151,0-1.345,1.468a10.357,10.357,0,0,0-.062,1.283,4.068,4.068,0,0,0,.343,1.986A1.187,1.187,0,0,0,113.045,14.891ZM123.733,17a3.344,3.344,0,0,1-.281-.853,2.754,2.754,0,0,1-2.285,1.028,3.374,3.374,0,0,1-2.285-.813,2.588,2.588,0,0,1-.94-2.043,2.66,2.66,0,0,1,1.143-2.338,5.821,5.821,0,0,1,3.322-.791h.914v-.5q0-1.316-1.134-1.316a.927.927,0,0,0-1.055,1.042H118.17a2.655,2.655,0,0,1,1.173-2.239,4.931,4.931,0,0,1,2.993-.86,4.323,4.323,0,0,1,2.874.888,3.086,3.086,0,0,1,1.081,2.435v4.21a4.311,4.311,0,0,0,.4,2V17Zm-1.854-1.934a1.652,1.652,0,0,0,.918-.237,1.487,1.487,0,0,0,.523-.536V12.772h-.861q-1.547,0-1.547,1.389a.848.848,0,0,0,.272.655A.986.986,0,0,0,121.878,15.066Zm11.8-4.9-.976-.07a1.752,1.752,0,0,0-1.793.879V17h-2.962V7.49h2.777l.1,1.222a2.294,2.294,0,0,1,2.083-1.4,2.888,2.888,0,0,1,.826.105Z" transform="translate(0 20)" fill="#12263f"/>
        </g>
      </g>
    </g>
    <g id="Grupo_143629" data-name="Grupo 143629" transform="translate(749.403 1985.329)">
      <g id="Grupo_18423" data-name="Grupo 18423" transform="translate(0 0)">
        <g id="Grupo_18421" data-name="Grupo 18421">
          <g id="Grupo_18420" data-name="Grupo 18420">
            <g id="Grupo_18419" data-name="Grupo 18419">
              <path id="Trazado_40936" data-name="Trazado 40936" d="M309.259,2203.037a57.318,57.318,0,1,1-57.317-57.316A57.317,57.317,0,0,1,309.259,2203.037Z" transform="translate(-194.623 -2145.721)" fill="#fff"/>
            </g>
          </g>
        </g>
        <path id="Trazado_40937" data-name="Trazado 40937" d="M308.648,2202.372a57.316,57.316,0,1,0-57.317,57.319A57.091,57.091,0,0,0,308.648,2202.372Z" transform="translate(-194.013 -2145.056)" fill="url(#radial-gradient)"/>
        <path id="Trazado_40938" data-name="Trazado 40938" d="M289.672,2196.986a43.75,43.75,0,1,0-43.75,43.75A43.587,43.587,0,0,0,289.672,2196.986Z" transform="translate(-188.43 -2139.479)" fill="none" stroke="#00223d" stroke-miterlimit="10" stroke-width="4"/>
        <g id="Grupo_18422" data-name="Grupo 18422" transform="translate(10.154 32.18)">
          <path id="Trazado_40939" data-name="Trazado 40939" d="M299.231,2164.488a57.325,57.325,0,0,1-98.686,57.081,57.143,57.143,0,0,0,98.686-57.081Z" transform="translate(-200.545 -2164.488)" fill="#eceef0"/>
        </g>
      </g>
      <g id="lwo0Ow.tif" transform="translate(-271.367 559.239)">
        <g id="Grupo_143625" data-name="Grupo 143625" transform="translate(298.908 -533.481)">
          <path id="Trazado_185205" data-name="Trazado 185205" d="M308.063-438.029l1.418-2.463a15.978,15.978,0,0,1-2.612-21.748,15.913,15.913,0,0,1,20.147-4.575,15.965,15.965,0,0,1,7.672,19.145c-2.441,7.486-11.5,13.324-20.619,9.843l-1.4,2.435c.158.1.277.181.4.254.887.524.976.873.449,1.787q-2.2,3.82-4.408,7.639-1.143,1.981-2.285,3.963c-.454.785-.836.886-1.623.433q-2.769-1.6-5.536-3.2c-.858-.5-.954-.84-.464-1.69q3.344-5.8,6.691-11.6c.512-.888.841-.974,1.732-.463C307.753-438.2,307.882-438.129,308.063-438.029Zm25.684-14.734a14.115,14.115,0,0,0-14.1-14.1,14.089,14.089,0,0,0-14.13,14.066,14.118,14.118,0,0,0,14.2,14.176A14.144,14.144,0,0,0,333.748-452.763Zm-26.566,16.272L301-425.789l4.586,2.652,6.173-10.7Zm3.94.236,1.335-2.315-1.541-.865-1.322,2.295Z" transform="translate(-298.908 475.801)" fill="#12263f"/>
          <path id="Trazado_185206" data-name="Trazado 185206" d="M507.311-150.058q7.777,0,15.553,0c.978,0,1.239.265,1.24,1.242q0,4.965,0,9.929c0,.9-.284,1.19-1.182,1.19H491.76c-.934,0-1.209-.278-1.21-1.218q0-4.965,0-9.929c0-.943.272-1.218,1.208-1.218h15.553ZM492.343-139.5h8.776v-8.749h-1.738c0,1.1,0,2.164,0,3.227,0,.857-.3,1.145-1.169,1.148q-1.131,0-2.261,0c-1.848,0-1.867-.018-1.867-1.885v-2.5h-1.741Zm19.362.029v-8.789h-1.728c0,1.088,0,2.149,0,3.211,0,.893-.289,1.174-1.2,1.176q-1.462,0-2.923,0c-.9,0-1.175-.285-1.177-1.194q0-1.59,0-3.186h-1.722v8.779Zm1.843-8.79v8.776h8.757v-8.762h-1.733c0,1.125,0,2.209,0,3.292,0,.76-.316,1.075-1.07,1.08-1.011.006-2.023,0-3.034,0-.908,0-1.19-.277-1.191-1.176,0-1.062,0-2.124,0-3.212Zm-15.954,0H495.88v2.585h1.715Zm10.58,2.607v-2.592h-1.682v2.592Zm10.6,0v-2.6h-1.683v2.6Z" transform="translate(-469.361 192.452)" fill="#12263f"/>
          <path id="Trazado_185207" data-name="Trazado 185207" d="M661.816-518.917a11.508,11.508,0,0,1,1.637.677,8.427,8.427,0,0,1,1.843,1.363,2.771,2.771,0,0,1,.026,3.893,6.752,6.752,0,0,1-3.808,2.067,12.961,12.961,0,0,1-8.869-.8,5.946,5.946,0,0,1-1.682-1.3,2.765,2.765,0,0,1-.028-3.811,6.419,6.419,0,0,1,2.951-1.848c.188-.066.378-.127.63-.212-.251-.45-.493-.871-.722-1.3a12.822,12.822,0,0,1-1.8-6.893A6.461,6.461,0,0,1,655.923-533a5.977,5.977,0,0,1,7.964,3.806,9.046,9.046,0,0,1-.316,6.409C663.069-521.472,662.411-520.216,661.816-518.917Zm-3.683,2.338c1.606-2.512,3.279-4.867,4.076-7.687a7.648,7.648,0,0,0,.243-3.541,4.643,4.643,0,0,0-4.076-3.893,4.5,4.5,0,0,0-4.437,3.5,7.352,7.352,0,0,0,.072,3.76C654.718-521.512,656.47-519.134,658.133-516.579Zm.238,4.307c.333-.027.922-.047,1.5-.13a7.492,7.492,0,0,0,3.769-1.4c.9-.726.945-1.568,0-2.218a16.192,16.192,0,0,0-2.406-1.158.548.548,0,0,0-.806.288c-.44.762-.933,1.494-1.408,2.236-.516.806-1.206.817-1.729.026s-1.017-1.572-1.544-2.345c-.086-.126-.3-.285-.409-.259a5.486,5.486,0,0,0-3,1.5,1.037,1.037,0,0,0,.005,1.612,4.857,4.857,0,0,0,1.285.921A10.935,10.935,0,0,0,658.371-512.272Z" transform="translate(-611.35 533.481)" fill="#12263f"/>
          <path id="Trazado_185208" data-name="Trazado 185208" d="M716.185-307.8h-1.691v-1.719h1.691Z" transform="translate(-668.547 334.28)" fill="#12263f"/>
          <path id="Trazado_185209" data-name="Trazado 185209" d="M652.284-277.429v1.688h-1.717v-1.688Z" transform="translate(-611.688 305.738)" fill="#12263f"/>
          <path id="Trazado_185210" data-name="Trazado 185210" d="M684.3-275.807h-1.7v-1.71h1.7Z" transform="translate(-640.182 305.816)" fill="#12263f"/>
          <path id="Trazado_185211" data-name="Trazado 185211" d="M714.534-277.636h1.7v1.7h-1.7Z" transform="translate(-668.583 305.922)" fill="#12263f"/>
          <path id="Trazado_185212" data-name="Trazado 185212" d="M374.556-424.4a12.327,12.327,0,0,1,12.394-12.349,12.351,12.351,0,0,1,12.328,12.321,12.393,12.393,0,0,1-12.381,12.4A12.37,12.37,0,0,1,374.556-424.4Zm1.765-.048a10.594,10.594,0,0,0,10.595,10.646,10.614,10.614,0,0,0,10.592-10.548,10.6,10.6,0,0,0-10.553-10.632A10.56,10.56,0,0,0,376.321-424.451Z" transform="translate(-366.192 447.446)" fill="#12263f"/>
          <path id="Trazado_185213" data-name="Trazado 185213" d="M700.865-501.451a2.662,2.662,0,0,1,2.665,2.6,2.669,2.669,0,0,1-2.634,2.695,2.662,2.662,0,0,1-2.663-2.661A2.658,2.658,0,0,1,700.865-501.451Zm.032,1.769a.887.887,0,0,0-.894.861.885.885,0,0,0,.859.9.894.894,0,0,0,.9-.862A.885.885,0,0,0,700.9-499.683Z" transform="translate(-654.085 504.992)" fill="#12263f"/>
          <path id="Trazado_185214" data-name="Trazado 185214" d="M445.149-399.936a3.512,3.512,0,0,1,.485-4.844,3.51,3.51,0,0,1,4.6,0c1.409,1.2,1.6,3.037.486,4.854.154.1.311.186.461.287a4.3,4.3,0,0,1,2.043,3.644c.033,1.728.014,3.457.009,5.186,0,.747-.328,1.067-1.085,1.068q-4.22,0-8.44,0c-.755,0-1.07-.32-1.073-1.076,0-1.471,0-2.942,0-4.414C442.637-397.636,443.142-398.59,445.149-399.936Zm-.74,8.388h7.051c0-1.546.036-3.054-.011-4.559a2.607,2.607,0,0,0-2.521-2.458c-.661-.024-1.325-.024-1.986,0a2.6,2.6,0,0,0-2.523,2.454C444.372-394.606,444.409-393.1,444.409-391.548Zm3.549-8.792a1.779,1.779,0,0,0,1.74-1.775,1.778,1.778,0,0,0-1.761-1.754,1.775,1.775,0,0,0-1.767,1.8A1.781,1.781,0,0,0,447.958-400.34Z" transform="translate(-426.744 419.773)" fill="#12263f"/>
        </g>
      </g>
    </g>
  </g>
</svg>
