<svg xmlns="http://www.w3.org/2000/svg" width="93" height="94" viewBox="0 0 93 94">
  <g id="Grupo_143669" data-name="Grupo 143669" transform="translate(-710.5 -3038)">
    <g id="Grupo_143635" data-name="Grupo 143635" transform="translate(710.775 3037.666)">
      <ellipse id="Elipse_4870" data-name="Elipse 4870" cx="46.5" cy="47" rx="46.5" ry="47" transform="translate(-0.275 0.334)" fill="#12263f"/>
      <g id="Grupo_143661" data-name="Grupo 143661" transform="translate(-277.85 483.651)">
        <path id="Trazado_185250" data-name="Trazado 185250" d="M312.082-424.6l2.04-3.544a22.992,22.992,0,0,1-3.758-31.3,22.9,22.9,0,0,1,28.991-6.583,22.973,22.973,0,0,1,11.039,27.549c-3.512,10.772-16.542,19.173-29.67,14.164l-2.012,3.5c.228.145.4.261.575.366,1.276.753,1.405,1.256.647,2.571q-3.17,5.5-6.343,10.992-1.645,2.851-3.289,5.7c-.654,1.129-1.2,1.275-2.335.623q-3.985-2.3-7.966-4.6c-1.234-.714-1.373-1.208-.668-2.431q4.812-8.35,9.628-16.7c.737-1.277,1.211-1.4,2.492-.666C311.636-424.839,311.821-424.74,312.082-424.6Zm36.959-21.2a20.311,20.311,0,0,0-20.3-20.295,20.273,20.273,0,0,0-20.332,20.24,20.315,20.315,0,0,0,20.435,20.4A20.353,20.353,0,0,0,349.041-445.8Zm-38.228,23.415-8.892,15.4,6.6,3.816,8.883-15.4Zm5.669.339,1.922-3.332-2.218-1.245-1.9,3.3Z" transform="translate(0 0)" fill="#fff"/>
        <path id="Trazado_185251" data-name="Trazado 185251" d="M374.556-418.983a17.739,17.739,0,0,1,17.835-17.77,17.773,17.773,0,0,1,17.74,17.729,17.833,17.833,0,0,1-17.816,17.837A17.8,17.8,0,0,1,374.556-418.983Zm2.54-.069a15.245,15.245,0,0,0,15.245,15.319,15.273,15.273,0,0,0,15.241-15.179,15.248,15.248,0,0,0-15.185-15.3A15.2,15.2,0,0,0,377.1-419.052Z" transform="translate(-63.613 -26.808)" fill="#fff"/>
        <path id="Trazado_185252" data-name="Trazado 185252" d="M446.253-397.433a5.054,5.054,0,0,1,.7-6.97,5.05,5.05,0,0,1,6.619,0c2.028,1.731,2.3,4.37.7,6.984.221.137.447.268.663.413a6.2,6.2,0,0,1,2.939,5.244c.048,2.487.021,4.975.013,7.462,0,1.074-.473,1.536-1.561,1.537q-6.072.007-12.145,0c-1.086,0-1.54-.461-1.544-1.548-.007-2.117,0-4.234,0-6.351C442.639-394.123,443.364-395.5,446.253-397.433Zm-1.065,12.071h10.146c0-2.225.052-4.395-.016-6.56a3.751,3.751,0,0,0-3.627-3.537c-.951-.035-1.906-.034-2.858,0a3.744,3.744,0,0,0-3.63,3.531C445.136-389.763,445.188-387.593,445.188-385.363Zm5.107-12.652a2.56,2.56,0,0,0,2.5-2.554,2.559,2.559,0,0,0-2.534-2.523,2.554,2.554,0,0,0-2.543,2.593A2.562,2.562,0,0,0,450.3-398.015Z" transform="translate(-120.86 -52.971)" fill="#fff"/>
      </g>
    </g>
  </g>
</svg>
