<svg xmlns="http://www.w3.org/2000/svg" width="93" height="94" viewBox="0 0 93 94">
  <g id="Grupo_143670" data-name="Grupo 143670" transform="translate(-968.5 -3038)">
    <g id="Grupo_143636" data-name="Grupo 143636" transform="translate(968.775 3037.666)">
      <ellipse id="Elipse_4870" data-name="Elipse 4870" cx="46.5" cy="47" rx="46.5" ry="47" transform="translate(-0.275 0.334)" fill="#12263f"/>
      <g id="_9DItZm.tif" data-name="9DItZm.tif" transform="translate(392.193 111.698)">
        <g id="Grupo_143662" data-name="Grupo 143662" transform="translate(-373.607 -97.537)">
          <path id="Trazado_185253" data-name="Trazado 185253" d="M-256.863-97.537a39.956,39.956,0,0,1,4.155.924,19.955,19.955,0,0,1,11.981,10.889,1.643,1.643,0,0,1-.018,1.266c-3.295,6.63-8.421,10.909-15.933,11.66-6.6.66-12.054-1.885-16.307-6.9a40.493,40.493,0,0,1-3.031-4.633,1.409,1.409,0,0,1-.05-1.46c3-6.033,7.622-10.037,14.321-11.438.6-.125,1.208-.2,1.813-.306ZM-258.307-75.2c.812-.085,1.733-.116,2.628-.286,5.575-1.061,9.511-4.323,12.2-9.209a.986.986,0,0,0-.021-.855,31.231,31.231,0,0,0-2.941-4.077c-4.028-4.238-8.977-6.111-14.8-5.067-5.252.942-9.03,4.045-11.766,8.543a1.718,1.718,0,0,0-.015,2.067C-269.666-78.615-264.929-75.473-258.307-75.2Z" transform="translate(288.718 97.537)" fill="#fff"/>
          <path id="Trazado_185254" data-name="Trazado 185254" d="M-120.563,151.5c-.355,2.034-.7,4-1.039,5.973-.19,1.121-.744,1.682-1.558,1.538-.833-.147-1.174-.824-.977-1.958q.578-3.333,1.165-6.665c.2-1.118.588-1.436,1.73-1.437,2.386,0,4.772.006,7.159,0a5.384,5.384,0,0,0,5.677-5.7c.006-1.96,0-3.92,0-5.88,0-1.225.426-1.649,1.657-1.652,1.551,0,3.1,0,4.745,0-.188-.618-.352-1.16-.518-1.7-.942-3.07-1.9-6.136-2.813-9.213a.718.718,0,0,0-.834-.619c-4.431.019-8.863.012-13.295.009a4.977,4.977,0,0,1-.827-.047,1.24,1.24,0,0,1-1.052-1.254,1.244,1.244,0,0,1,1.086-1.224,4.442,4.442,0,0,1,.637-.029q7.287,0,14.573,0c1.2,0,1.472.205,1.825,1.354q2.032,6.617,4.061,13.235c.414,1.35-.1,2.042-1.52,2.046-1.47,0-2.94,0-4.41,0h-.758c0,.391.006.7,0,1.018a47.947,47.947,0,0,1-.177,5.736,7.745,7.745,0,0,1-7.49,6.467C-115.836,151.541-118.157,151.5-120.563,151.5Z" transform="translate(156.141 -93.562)" fill="#fff"/>
          <path id="Trazado_185255" data-name="Trazado 185255" d="M-335.881,124.172a28.977,28.977,0,0,0,2.8,10.868,23.3,23.3,0,0,1,2.454,10.147,29.285,29.285,0,0,1-1.12,7.234c-.434,1.755-.85,3.514-1.275,5.272-.025.1-.056.205-.088.307a1.281,1.281,0,0,1-1.493.981,1.236,1.236,0,0,1-.97-1.548c.379-1.724.847-3.428,1.208-5.156a55.892,55.892,0,0,0,1.1-6.012,17.3,17.3,0,0,0-1.763-9.3,34.11,34.11,0,0,1-3.293-11.207c-.1-.888-.149-1.783-.174-2.676a1.271,1.271,0,0,1,1.441-1.463c1.406-.016,2.812,0,4.218,0q6.9,0,13.8,0a6.046,6.046,0,0,1,.765.027,1.242,1.242,0,0,1,1.11,1.2,1.234,1.234,0,0,1-1.028,1.273,5.107,5.107,0,0,1-.891.052q-7.957,0-15.914,0Z" transform="translate(342.992 -93.539)" fill="#fff"/>
          <path id="Trazado_185256" data-name="Trazado 185256" d="M-368.941-8.039c-1.085,0-2.17.009-3.254,0a1.254,1.254,0,0,1-1.412-1.29,1.27,1.27,0,0,1,1.391-1.259q3.286-.019,6.572,0a1.267,1.267,0,0,1,1.411,1.3,1.25,1.25,0,0,1-1.39,1.247C-366.729-8.03-367.835-8.039-368.941-8.039Z" transform="translate(373.607 21.736)" fill="#fff"/>
          <path id="Trazado_185257" data-name="Trazado 185257" d="M31.272-8.034c-1.085,0-2.169.008-3.254,0-.892-.008-1.427-.5-1.421-1.279a1.277,1.277,0,0,1,1.442-1.272q3.254-.014,6.508,0A1.271,1.271,0,0,1,35.97-9.3c0,.773-.543,1.252-1.444,1.26C33.442-8.028,32.357-8.034,31.272-8.034Z" transform="translate(24.669 21.733)" fill="#fff"/>
          <path id="Trazado_185258" data-name="Trazado 185258" d="M-342.643,34.874a2.909,2.909,0,0,1-.432.743c-1.168,1.208-2.359,2.4-3.56,3.572a1.245,1.245,0,0,1-1.827.063,1.282,1.282,0,0,1,.044-1.875c1.178-1.2,2.371-2.385,3.564-3.568A1.223,1.223,0,0,1-343.4,33.5,1.314,1.314,0,0,1-342.643,34.874Z" transform="translate(352.02 -16.608)" fill="#fff"/>
          <path id="Trazado_185259" data-name="Trazado 185259" d="M25.67,34.3a5.184,5.184,0,0,1,.836-.975,1,1,0,0,1,1.3.123c1.33,1.287,2.643,2.592,3.923,3.929a1.225,1.225,0,0,1-.094,1.634,1.183,1.183,0,0,1-1.675.115c-1.337-1.279-2.635-2.6-3.925-3.927A3.131,3.131,0,0,1,25.67,34.3Z" transform="translate(25.477 -16.402)" fill="#fff"/>
          <path id="Trazado_185260" data-name="Trazado 185260" d="M-342.624-78.085c-.261.317-.478.807-.835.953a1.468,1.468,0,0,1-1.281-.109c-1.363-1.248-2.658-2.571-3.938-3.906a1.2,1.2,0,0,1,.078-1.628,1.2,1.2,0,0,1,1.675-.129c1.338,1.276,2.635,2.6,3.924,3.922A3.187,3.187,0,0,1-342.624-78.085Z" transform="translate(352.118 85.028)" fill="#fff"/>
          <path id="Trazado_185261" data-name="Trazado 185261" d="M26.535-78.346a3.092,3.092,0,0,1,.444-.749c1.153-1.192,2.33-2.362,3.512-3.526a1.279,1.279,0,0,1,1.877-.086A1.285,1.285,0,0,1,32.3-80.83c-1.176,1.2-2.37,2.382-3.564,3.564a1.226,1.226,0,0,1-1.461.287A1.313,1.313,0,0,1,26.535-78.346Z" transform="translate(24.723 84.929)" fill="#fff"/>
          <path id="Trazado_185262" data-name="Trazado 185262" d="M-145.581,124.252a1.27,1.27,0,0,1-1.289-1.233,1.265,1.265,0,0,1,1.228-1.291,1.267,1.267,0,0,1,1.322,1.262A1.271,1.271,0,0,1-145.581,124.252Z" transform="translate(175.915 -93.64)" fill="#fff"/>
          <path id="Trazado_185263" data-name="Trazado 185263" d="M-180.1-52.052a7.465,7.465,0,0,1-7.454,7.488,7.467,7.467,0,0,1-7.419-7.459,7.465,7.465,0,0,1,7.422-7.454A7.464,7.464,0,0,1-180.1-52.052Zm-8.408-4.706a4.8,4.8,0,0,0-3.885,5.31,4.93,4.93,0,0,0,5.027,4.32c2.3-.113,4.544-2.052,4.511-3.89-2.2.965-3.833.783-5.169-.578C-189.334-52.927-189.487-54.564-188.508-56.758Zm3.383,3.806a1.449,1.449,0,0,0,1.467-1.453,1.472,1.472,0,0,0-1.487-1.506,1.513,1.513,0,0,0-1.482,1.464A1.479,1.479,0,0,0-185.126-52.951Z" transform="translate(217.857 64.353)" fill="#fff"/>
        </g>
      </g>
    </g>
  </g>
</svg>
