<svg xmlns="http://www.w3.org/2000/svg" width="93" height="94" viewBox="0 0 93 94">
  <g id="Grupo_143671" data-name="Grupo 143671" transform="translate(-1226.5 -3038)">
    <g id="Grupo_143637" data-name="Grupo 143637" transform="translate(1226.775 3037.666)">
      <ellipse id="Elipse_4870" data-name="Elipse 4870" cx="46.5" cy="47" rx="46.5" ry="47" transform="translate(-0.275 0.334)" fill="#12263f"/>
      <g id="Grupo_89213" data-name="Grupo 89213" transform="translate(-226.847 -3043.146)">
        <g id="upfbXb" transform="translate(244.14 3056.155)">
          <g id="Grupo_89208" data-name="Grupo 89208" transform="translate(0 0)">
            <path id="Trazado_122296" data-name="Trazado 122296" d="M2483.678,1954.447a32.14,32.14,0,0,1,.752-3.782c2.492-7.742,7.751-12.349,15.8-13.672,1.283-.211,2.6-.2,3.927-.292.16-.463,0-.762-.426-1.078a10.661,10.661,0,0,1-4.54-8.675c-.047-1.751-.008-3.506-.008-5.263-.5-.119-.947-.213-1.389-.337-.484-.136-.9-.455-.891-.954a33.356,33.356,0,0,1,.258-5.538,7.317,7.317,0,0,1,6.131-5.615,1.114,1.114,0,0,0,.722-.405,8.924,8.924,0,0,1,9.753-4.347,12.062,12.062,0,0,1,9.968,12.042c.007,1.211,0,2.422,0,3.634,0,1.161-.418,1.579-1.56,1.583-.378,0-.757,0-1.284,0v7.52h.836c2.119,0,4.239-.01,6.358,0a1.216,1.216,0,1,1,.055,2.42c-1.15-.008-2.3,0-3.451,0q-6.782,0-13.564,0a4.127,4.127,0,0,0-4.49,4.479q-.008,8.719,0,17.439a4.12,4.12,0,0,0,4.491,4.471H2538.8a4.124,4.124,0,0,0,4.466-4.44q0-8.78,0-17.56a4.113,4.113,0,0,0-4.04-4.388,1.229,1.229,0,0,1-1.269-1.252,1.263,1.263,0,0,1,1.424-1.162,6.524,6.524,0,0,1,6.3,6.6q.028,7.781,0,15.562a27.131,27.131,0,0,1-.122,3.623,6.414,6.414,0,0,1-6.082,5.424c-1.027.038-2.057.006-2.965.006l-1.649,3.381c.745.1,1.851-.26,2.147,1.014.16.687-.29,1.073-.772,1.429h-46.268a3.853,3.853,0,0,0-.388-.125,7.035,7.035,0,0,1-4.895-3.5,18.661,18.661,0,0,1-1.016-2.677Zm20.678,1.7c-.049-1.509-.128-2.952-.136-4.4-.019-3.936-.006-7.871-.006-11.807v-.654c-1.022,0-1.952-.059-2.873.009a16.7,16.7,0,0,0-14.78,12.685,29,29,0,0,0-.458,6.743,4.853,4.853,0,0,0,5.141,5.17q6.145,0,12.292,0c.212,0,.424-.018.645-.029v-5.3h-7.771c-1.121,0-1.684-.391-1.7-1.181-.021-.812.567-1.241,1.7-1.241Zm16.953-36.852c0-1.093.031-2.121-.006-3.146a9.634,9.634,0,0,0-9.891-9.412,6.3,6.3,0,0,0,.279,12.585c3.046.029,6.092.008,9.138.007C2520.966,1919.325,2521.1,1919.306,2521.309,1919.291Zm-19.705,2.362c0,1.676-.025,3.308.011,4.94a10.84,10.84,0,0,0,.25,2.216,8.126,8.126,0,0,0,2.813,4.5c.122-.227.213-.405.31-.58a6.347,6.347,0,0,1,4.406-3.3,11.455,11.455,0,0,1,2.228-.154c2.177-.019,4.354-.007,6.582-.007.648-2.5.228-4.995.376-7.52h-.747c-2.079,0-4.158.01-6.236-.008a8.54,8.54,0,0,1-5.125-1.731c-.141-.1-.289-.2-.433-.293A9.294,9.294,0,0,1,2501.6,1921.653Zm2.838-3.749a8.993,8.993,0,0,1-1.424-6.084,4.9,4.9,0,0,0-3.568,3.743,32.393,32.393,0,0,0-.221,3.644A6.7,6.7,0,0,0,2504.442,1917.9Zm15.764,42.633h-7.586c.235,1.094.472,2.2.713,3.316h6.873Zm2.479,3.327h4.539v-3.32h-4.539Zm-16-3.311v3.309h4C2511.051,1961.546,2509.48,1960.245,2506.688,1960.553Zm23.028,3.271c1.9-.115,3.888-1.756,4.017-3.279h-4.017Z" transform="translate(-2483.678 -1904.292)" fill="#fff"/>
            <path id="Trazado_122297" data-name="Trazado 122297" d="M2791.187,2210.736a4.5,4.5,0,1,1,4.5-4.505A4.487,4.487,0,0,1,2791.187,2210.736Zm.021-6.576a2.076,2.076,0,1,0,2.058,2.091A2.061,2.061,0,0,0,2791.208,2204.161Z" transform="translate(-2749.906 -2165.641)" fill="#fff"/>
            <path id="Trazado_122298" data-name="Trazado 122298" d="M2887.148,2110.168a1.232,1.232,0,0,1,1.2,1.249,1.208,1.208,0,0,1-2.414-.073A1.238,1.238,0,0,1,2887.148,2110.168Z" transform="translate(-2837.117 -2085.184)" fill="#fff"/>
            <path id="Trazado_122299" data-name="Trazado 122299" d="M2661.225,2069.866a1.174,1.174,0,0,1,1.234-1.139,1.2,1.2,0,1,1-.108,2.388A1.18,1.18,0,0,1,2661.225,2069.866Z" transform="translate(-2639.678 -2048.771)" fill="#fff"/>
            <path id="Trazado_122300" data-name="Trazado 122300" d="M2723.1,2069.864a1.174,1.174,0,0,1,1.236-1.137,1.2,1.2,0,1,1-.111,2.388A1.18,1.18,0,0,1,2723.1,2069.864Z" transform="translate(-2694.048 -2048.771)" fill="#fff"/>
          </g>
        </g>
      </g>
    </g>
  </g>
</svg>
