<svg id="Grupo_143628" data-name="Grupo 143628" xmlns="http://www.w3.org/2000/svg" xmlns:xlink="http://www.w3.org/1999/xlink" width="114.636" height="114.636" viewBox="0 0 114.636 114.636">
  <defs>
    <radialGradient id="radial-gradient" cx="0.076" cy="0.019" r="1.465" gradientTransform="translate(0.001)" gradientUnits="objectBoundingBox">
      <stop offset="0" stop-color="#f6f6f7"/>
      <stop offset="0.477" stop-color="#f9f9fa"/>
      <stop offset="0.715" stop-color="#fff"/>
    </radialGradient>
  </defs>
  <g id="Grupo_18423" data-name="Grupo 18423" transform="translate(0 0)">
    <g id="Grupo_18421" data-name="Grupo 18421">
      <g id="Grupo_18420" data-name="Grupo 18420">
        <g id="Grupo_18419" data-name="Grupo 18419">
          <path id="Trazado_40936" data-name="Trazado 40936" d="M309.259,2203.037a57.318,57.318,0,1,1-57.317-57.316A57.317,57.317,0,0,1,309.259,2203.037Z" transform="translate(-194.623 -2145.721)" fill="#fff"/>
        </g>
      </g>
    </g>
    <path id="Trazado_40937" data-name="Trazado 40937" d="M308.648,2202.372a57.316,57.316,0,1,0-57.317,57.319A57.091,57.091,0,0,0,308.648,2202.372Z" transform="translate(-194.013 -2145.056)" fill="url(#radial-gradient)"/>
    <path id="Trazado_40938" data-name="Trazado 40938" d="M289.672,2196.986a43.75,43.75,0,1,0-43.75,43.75A43.587,43.587,0,0,0,289.672,2196.986Z" transform="translate(-188.43 -2139.479)" fill="none" stroke="#00223d" stroke-miterlimit="10" stroke-width="4"/>
    <g id="Grupo_18422" data-name="Grupo 18422" transform="translate(10.154 32.18)">
      <path id="Trazado_40939" data-name="Trazado 40939" d="M299.231,2164.488a57.325,57.325,0,0,1-98.686,57.081,57.143,57.143,0,0,0,98.686-57.081Z" transform="translate(-200.545 -2164.488)" fill="#eceef0"/>
    </g>
  </g>
  <g id="_9DItZm.tif" data-name="9DItZm.tif" transform="translate(410.337 133.563)">
    <g id="Grupo_143623" data-name="Grupo 143623" transform="translate(-373.607 -97.537)">
      <path id="Trazado_185194" data-name="Trazado 185194" d="M-261.832-97.537a29.712,29.712,0,0,1,3.09.687,14.84,14.84,0,0,1,8.909,8.1,1.222,1.222,0,0,1-.013.941c-2.45,4.93-6.262,8.112-11.848,8.671a13.509,13.509,0,0,1-12.127-5.133,30.11,30.11,0,0,1-2.254-3.446,1.048,1.048,0,0,1-.037-1.086,14.875,14.875,0,0,1,10.65-8.506c.446-.093.9-.152,1.348-.227Zm-1.073,16.608c.6-.063,1.289-.086,1.954-.213a12.758,12.758,0,0,0,9.073-6.848.734.734,0,0,0-.016-.636,23.225,23.225,0,0,0-2.187-3.032,11.651,11.651,0,0,0-11.005-3.768,12.638,12.638,0,0,0-8.75,6.353,1.277,1.277,0,0,0-.011,1.537A12.776,12.776,0,0,0-262.905-80.929Z" transform="translate(285.52 97.537)" fill="#12263f"/>
      <path id="Trazado_185195" data-name="Trazado 185195" d="M-121.493,143.849c-.264,1.512-.524,2.976-.773,4.442-.142.834-.554,1.251-1.158,1.144s-.873-.613-.727-1.456q.43-2.479.867-4.957c.148-.832.437-1.068,1.286-1.068,1.775,0,3.549,0,5.324,0a4,4,0,0,0,4.222-4.24c0-1.457,0-2.915,0-4.373,0-.911.317-1.226,1.232-1.229,1.153,0,2.306,0,3.529,0-.14-.46-.262-.862-.385-1.264-.7-2.283-1.411-4.563-2.092-6.851a.534.534,0,0,0-.62-.46c-3.3.014-6.591.009-9.887.007a3.7,3.7,0,0,1-.615-.035.922.922,0,0,1-.783-.932.925.925,0,0,1,.808-.911,3.3,3.3,0,0,1,.474-.022q5.419,0,10.837,0c.889,0,1.095.153,1.357,1.007q1.511,4.921,3.02,9.842c.308,1-.073,1.518-1.131,1.521-1.093,0-2.186,0-3.28,0h-.564c0,.291,0,.524,0,.757a35.656,35.656,0,0,1-.131,4.266,5.76,5.76,0,0,1-5.57,4.809C-117.978,143.876-119.7,143.849-121.493,143.849Z" transform="translate(147.951 -100.759)" fill="#12263f"/>
      <path id="Trazado_185196" data-name="Trazado 185196" d="M-336.551,123.516a21.548,21.548,0,0,0,2.082,8.082,17.326,17.326,0,0,1,1.825,7.546,21.778,21.778,0,0,1-.833,5.38c-.323,1.305-.632,2.613-.948,3.92-.019.077-.042.153-.065.228a.952.952,0,0,1-1.11.73.919.919,0,0,1-.721-1.151c.282-1.282.63-2.549.9-3.834a41.567,41.567,0,0,0,.819-4.471,12.866,12.866,0,0,0-1.311-6.915,25.367,25.367,0,0,1-2.449-8.334c-.073-.66-.11-1.326-.129-1.99a.945.945,0,0,1,1.072-1.088c1.046-.012,2.091,0,3.137,0h10.266a4.5,4.5,0,0,1,.569.02.924.924,0,0,1,.826.894.918.918,0,0,1-.764.947,3.8,3.8,0,0,1-.662.039q-5.917,0-11.834,0Z" transform="translate(341.839 -100.735)" fill="#12263f"/>
      <path id="Trazado_185197" data-name="Trazado 185197" d="M-370.137-8.7c-.807,0-1.613.006-2.42,0a.933.933,0,0,1-1.05-.959.944.944,0,0,1,1.034-.936q2.444-.014,4.887,0a.942.942,0,0,1,1.049.968.93.93,0,0,1-1.033.928C-368.492-8.688-369.315-8.7-370.137-8.7Z" transform="translate(373.607 18.881)" fill="#12263f"/>
      <path id="Trazado_185198" data-name="Trazado 185198" d="M30.074-8.691c-.807,0-1.613.006-2.42,0-.664-.006-1.061-.372-1.057-.951a.95.95,0,0,1,1.072-.946q2.42-.01,4.84,0a.945.945,0,0,1,1.059.96c0,.575-.4.931-1.074.937C31.687-8.686,30.88-8.691,30.074-8.691Z" transform="translate(11.527 18.878)" fill="#12263f"/>
      <path id="Trazado_185199" data-name="Trazado 185199" d="M-344.234,34.49a2.163,2.163,0,0,1-.321.552c-.869.9-1.754,1.782-2.647,2.657a.926.926,0,0,1-1.359.047.953.953,0,0,1,.032-1.395c.876-.892,1.763-1.773,2.651-2.654a.909.909,0,0,1,1.085-.228A.977.977,0,0,1-344.234,34.49Z" transform="translate(351.207 -20.908)" fill="#12263f"/>
      <path id="Trazado_185200" data-name="Trazado 185200" d="M25.67,34.006a3.855,3.855,0,0,1,.622-.725.746.746,0,0,1,.97.092c.989.957,1.966,1.928,2.917,2.922a.911.911,0,0,1-.07,1.215.88.88,0,0,1-1.245.085c-.994-.951-1.96-1.933-2.919-2.92A2.328,2.328,0,0,1,25.67,34.006Z" transform="translate(12.366 -20.693)" fill="#12263f"/>
      <path id="Trazado_185201" data-name="Trazado 185201" d="M-344.249-79.394c-.194.236-.355.6-.621.708a1.091,1.091,0,0,1-.952-.081c-1.014-.928-1.977-1.912-2.929-2.9a.893.893,0,0,1,.058-1.211.892.892,0,0,1,1.246-.1c1,.949,1.959,1.931,2.918,2.917A2.37,2.37,0,0,1-344.249-79.394Z" transform="translate(351.309 84.557)" fill="#12263f"/>
      <path id="Trazado_185202" data-name="Trazado 185202" d="M26.535-79.559a2.3,2.3,0,0,1,.33-.557c.858-.887,1.733-1.757,2.612-2.622a.951.951,0,0,1,1.4-.064.955.955,0,0,1-.049,1.4c-.875.892-1.763,1.771-2.65,2.651a.912.912,0,0,1-1.087.213A.976.976,0,0,1,26.535-79.559Z" transform="translate(11.583 84.454)" fill="#12263f"/>
      <path id="Trazado_185203" data-name="Trazado 185203" d="M-145.912,123.605a.944.944,0,0,1-.958-.917.94.94,0,0,1,.913-.96.942.942,0,0,1,.983.939A.945.945,0,0,1-145.912,123.605Z" transform="translate(168.47 -100.84)" fill="#12263f"/>
      <path id="Trazado_185204" data-name="Trazado 185204" d="M-183.913-53.955a5.552,5.552,0,0,1-5.543,5.568,5.553,5.553,0,0,1-5.517-5.547,5.551,5.551,0,0,1,5.52-5.543A5.55,5.55,0,0,1-183.913-53.955Zm-6.253-3.5a3.57,3.57,0,0,0-2.889,3.949,3.666,3.666,0,0,0,3.739,3.213c1.707-.084,3.379-1.526,3.355-2.893-1.638.718-2.85.582-3.844-.43C-190.779-54.606-190.893-55.823-190.166-57.455Zm2.516,2.831A1.078,1.078,0,0,0-186.56-55.7a1.094,1.094,0,0,0-1.106-1.12,1.125,1.125,0,0,0-1.1,1.088A1.1,1.1,0,0,0-187.65-54.624Z" transform="translate(211.991 63.103)" fill="#12263f"/>
    </g>
  </g>
</svg>
