<svg id="Grupo_143631" data-name="Grupo 143631" xmlns="http://www.w3.org/2000/svg" xmlns:xlink="http://www.w3.org/1999/xlink" width="114.636" height="114.636" viewBox="0 0 114.636 114.636">
  <defs>
    <radialGradient id="radial-gradient" cx="0.076" cy="0.019" r="1.465" gradientTransform="translate(0.001)" gradientUnits="objectBoundingBox">
      <stop offset="0" stop-color="#f6f6f7"/>
      <stop offset="0.477" stop-color="#f9f9fa"/>
      <stop offset="0.715" stop-color="#fff"/>
    </radialGradient>
  </defs>
  <g id="Grupo_18423" data-name="Grupo 18423" transform="translate(0 0)">
    <g id="Grupo_18421" data-name="Grupo 18421">
      <g id="Grupo_18420" data-name="Grupo 18420">
        <g id="Grupo_18419" data-name="Grupo 18419">
          <path id="Trazado_40936" data-name="Trazado 40936" d="M309.259,2203.037a57.318,57.318,0,1,1-57.317-57.316A57.317,57.317,0,0,1,309.259,2203.037Z" transform="translate(-194.623 -2145.721)" fill="#fff"/>
        </g>
      </g>
    </g>
    <path id="Trazado_40937" data-name="Trazado 40937" d="M308.648,2202.372a57.316,57.316,0,1,0-57.317,57.319A57.091,57.091,0,0,0,308.648,2202.372Z" transform="translate(-194.013 -2145.056)" fill="url(#radial-gradient)"/>
    <path id="Trazado_40938" data-name="Trazado 40938" d="M289.672,2196.986a43.75,43.75,0,1,0-43.75,43.75A43.587,43.587,0,0,0,289.672,2196.986Z" transform="translate(-188.43 -2139.479)" fill="none" stroke="#00223d" stroke-miterlimit="10" stroke-width="4"/>
    <g id="Grupo_18422" data-name="Grupo 18422" transform="translate(10.154 32.18)">
      <path id="Trazado_40939" data-name="Trazado 40939" d="M299.231,2164.488a57.325,57.325,0,0,1-98.686,57.081,57.143,57.143,0,0,0,98.686-57.081Z" transform="translate(-200.545 -2164.488)" fill="#eceef0"/>
    </g>
  </g>
  <g id="EgW8ki" transform="translate(-853.328 993.345)">
    <g id="Grupo_143627" data-name="Grupo 143627" transform="translate(888.86 -961.429)">
      <path id="Trazado_185215" data-name="Trazado 185215" d="M916.125-920.324c-.2-.81-.41-1.609-.595-2.414a19.881,19.881,0,0,1-.513-5.411,11.283,11.283,0,0,1,2.514-6.753c1.05-1.29,2.211-2.488,3.322-3.728.162-.18.321-.363.53-.6h-1.432V-940.6h.546c.572,0,1.144.006,1.715-.007a.4.4,0,0,0,.287-.138,9.711,9.711,0,0,0,1.539-4.6c-.382.084-.739.173-1.1.24a23.549,23.549,0,0,1-4.266.295.556.556,0,0,0-.479.21,2.486,2.486,0,0,1-2.84.727c-.488-.185-.971-.385-1.444-.606a1.687,1.687,0,0,1-1.017-1.572c-.013-.354.007-.71,0-1.065a2.251,2.251,0,0,1,.775-1.778c1.771-1.684,3.541-3.369,5.278-5.088.649-.642,1.208-1.376,1.806-2.07.238-.276.472-.557.746-.881l-1.831-2.171c.684-.393,1.32-.828,2.01-1.144a10.973,10.973,0,0,1,11.7,1.148,14.025,14.025,0,0,1,5.465,8.681,16.926,16.926,0,0,1,.36,3.22c.06,2.551.039,5.1.05,7.656,0,.1-.008.193-.014.323h-1.042c-.473,0-.947.008-1.42,0a.3.3,0,0,0-.339.244,11.567,11.567,0,0,0-.5,5.452,43.858,43.858,0,0,1,.632,5.219,25.325,25.325,0,0,1-1.2,7.795c-.058.2-.17.2-.327.2q-2.425,0-4.85,0H916.125Zm.392-4.787h14.8v1.384h-14.6c.142.619.286,1.19.4,1.767.045.229.154.27.362.269,2.011-.007,4.022,0,6.034,0q5.221,0,10.442.005c.227,0,.326-.061.385-.286a24.427,24.427,0,0,0,.838-5.3,24.487,24.487,0,0,0-.5-5.259,13.605,13.605,0,0,1,.771-7.774.4.4,0,0,1,.448-.3c.647.019,1.294.006,1.969.006v-.357c0-1.883.028-3.767-.01-5.65a19.138,19.138,0,0,0-.255-3,12.986,12.986,0,0,0-4.226-7.737,9.764,9.764,0,0,0-10.291-2.028c-.446.158-.868.384-1.332.592l1.813,2.168a11.81,11.81,0,0,0-2.3,2.033c-.66.77-1.3,1.559-2.025,2.27-1.529,1.509-3.1,2.974-4.662,4.451a.847.847,0,0,0-.309.641q0,.532,0,1.065a.442.442,0,0,0,.3.456c.23.088.458.183.681.288,1.292.61,1.654.3,2.3-.6a.455.455,0,0,1,.446-.2,23.207,23.207,0,0,0,4.71-.264,3.92,3.92,0,0,0,2.063-.877c.2-.18.424-.328.684-.527a18.882,18.882,0,0,1-.175,3.745,11.4,11.4,0,0,1-1.246,3.536h4.779v1.355c-.091,0-.159.011-.227.011-1.588,0-3.175.016-4.763-.012a1.008,1.008,0,0,0-1.074.51,2.214,2.214,0,0,1-.354.434c-1.062,1.166-2.143,2.315-3.184,3.5a10.712,10.712,0,0,0-2.641,5.271A14.546,14.546,0,0,0,916.517-925.11Z" transform="translate(-911.467 961.429)" fill="#12263f"/>
      <path id="Trazado_185216" data-name="Trazado 185216" d="M888.867-241.649c0-1.1-.024-2.19.015-3.281a2.075,2.075,0,0,1,.322-.908,2.469,2.469,0,0,1,2.24-1.3c2.149-.01,4.3.006,6.446.005q4.2,0,8.4-.01,3.829,0,7.659,0a2.609,2.609,0,0,1,2.629,2.035,2.027,2.027,0,0,1,.05.41c.009.788.015,1.577.013,2.365,0,.215-.034.43-.056.683Zm1.356-1.344h25.01c0-.622.035-1.222-.018-1.815a1.268,1.268,0,0,0-.38-.642,1.273,1.273,0,0,0-1.009-.318q-8.324.007-16.647,0c-1.892,0-3.785,0-5.677,0a1.2,1.2,0,0,0-1.271,1.106C890.195-244.118,890.223-243.575,890.223-242.992Z" transform="translate(-888.86 289.406)" fill="#12263f"/>
      <path id="Trazado_185217" data-name="Trazado 185217" d="M1387.251-764.513c0-.417,0-.8,0-1.182.005-.857.018-1.715.016-2.572,0-.18.051-.24.234-.239.709,0,1.417-.009,2.126-.014h.341v-1.412h-3.447v-1.344h4.83v4.116h-2.7v1.292a15.278,15.278,0,0,1,12.012,7.114,15.068,15.068,0,0,1,2.117,11.617,15.493,15.493,0,0,1-15.786,12.372V-736.1a14.106,14.106,0,0,0,11.723-5.479,13.616,13.616,0,0,0,3.009-9.3,13.806,13.806,0,0,0-4.422-9.791A14,14,0,0,0,1387.251-764.513Z" transform="translate(-1357.077 782.529)" fill="#12263f"/>
      <path id="Trazado_185218" data-name="Trazado 185218" d="M1385.523-599.068V-602.6h1.343v2.088a11.054,11.054,0,0,0,7.128-3.5l-1.6-1.56.97-.95,1.415,1.45c1.1-.95,2.352-4.782,2.1-6.35h-2.164v-1.37h2.056c.274-1.395-1.527-5.082-3.195-6.553l-1.44,1.5-.987-1.049,1.39-1.3c-1.016-1.133-4.458-2.369-6.218-2.259v1.81h-1.388v-3.211a12.081,12.081,0,0,1,10.664,4.717,11.762,11.762,0,0,1,1.126,13.611C1394.364-601.179,1390.488-599.153,1385.523-599.068Z" transform="translate(-1355.581 643.841)" fill="#12263f"/>
      <path id="Trazado_185219" data-name="Trazado 185219" d="M1362.9-540.293l1.294.431c-.113.346-.218.679-.329,1.01-.413,1.24-.82,2.481-1.247,3.716-.078.227.059.3.179.406a2.383,2.383,0,0,1,.784,2.484,2.354,2.354,0,0,1-1.858,1.824,2.487,2.487,0,0,1-3.041-2.347,2.5,2.5,0,0,1,2.382-2.567c.087,0,.214-.148.25-.253.5-1.453.978-2.911,1.465-4.367C1362.812-540.057,1362.85-540.158,1362.9-540.293Zm-1.728,8.561a1.131,1.131,0,0,0,1.119-1.106,1.144,1.144,0,0,0-1.128-1.133,1.129,1.129,0,0,0-1.113,1.111A1.119,1.119,0,0,0,1361.17-531.732Z" transform="translate(-1330.882 565.211)" fill="#12263f"/>
      <path id="Trazado_185220" data-name="Trazado 185220" d="M1561.819-722.74l2.808,2.828-2.637,2.523,1.217,1.555-1.122.805a18.207,18.207,0,0,0-5.486-5.029l.718-1.2,1.825,1.223Zm-.821,4.329,1.614-1.518-.745-.793-1.6,1.627Z" transform="translate(-1517.091 736.863)" fill="#12263f"/>
      <path id="Trazado_185221" data-name="Trazado 185221" d="M1224.507-855.343l-1.128-1.285.952-1,1.292,1.477Z" transform="translate(-1203.587 863.773)" fill="#12263f"/>
      <path id="Trazado_185222" data-name="Trazado 185222" d="M1118.156-897.538h-1.67l-.188-1.344h1.99Z" transform="translate(-1102.841 902.583)" fill="#12263f"/>
      <path id="Trazado_185223" data-name="Trazado 185223" d="M1176.814-890.492l-1.516-.721.45-1.3,1.8.855Z" transform="translate(-1158.351 896.595)" fill="#12263f"/>
      <path id="Trazado_185224" data-name="Trazado 185224" d="M1257.1-803.667l1.239-.6.707,1.814-1.32.39Z" transform="translate(-1235.316 813.57)" fill="#12263f"/>
      <path id="Trazado_185225" data-name="Trazado 185225" d="M1273.588-741.35l1.363-.178c.036.558.07,1.092.106,1.657h-1.37Z" transform="translate(-1250.825 754.539)" fill="#12263f"/>
    </g>
  </g>
</svg>
